{
.appVersion = "1233";
classes = (
{
automatic = 1;
code = "A B C D E F G H I L M N O P Q R S T V a a_macr b c d d.ss01 e e_macr f f_l g g.ss01 h h.ss01 i idotless i_macr k l m n o o_macr p q q_etfin q_strok q_strok_ra r r_rot_c_ra s longs longs_i longs_t t u u_macr v x y z";
name = AllLetters;
}
);
copyright = "Copyright (c) 2019 ANRT. All rights reserved.";
customParameters = (
{
name = glyphOrder;
value = (
.notdef,
emspace,
enspace,
threeperemspace,
fourperemspace,
space,
thinspace,
hairspace,
A,
B,
C,
D,
E,
F,
G,
H,
I,
J,
K,
L,
M,
N,
O,
P,
Q,
Q_strok,
R,
S,
T,
U,
V,
W,
X,
Y,
Z,
a,
a_macr,
b,
c,
c_t,
d,
d.ss01,
e,
e_macr,
f,
f_l,
g,
g.ss01,
h,
h.ss01,
i,
idotless,
i_macr,
j,
k,
l,
m,
n,
o,
o_macr,
p,
q,
q_etfin,
q_strok,
q_strok_ra,
q_tilde,
r,
r_rot,
r_rot_c_ra,
s,
longs,
longs_i,
longs_t,
t,
u,
u_macr,
v,
w,
x,
y,
z,
z.ss01,
etfin,
con,
section,
parenleft,
parenright,
period,
semicolon,
question,
slash,
hyphen,
macr,
ra
);
},
{
name = "Use Typo Metrics";
value = 1;
},
{
name = vendorID;
value = ANRT;
},
{
name = unicodeRanges;
value = (
0
);
},
{
name = codePageRanges;
value = (
1252
);
},
{
name = description;

glyphs = (
{
color = 3;
glyphname = A;
lastChange = "2019-04-21 15:53:50 +0000";
layers = (
{
anchors = (
{
name = bottom;
position = "{377, 0}";
},
{
name = ogonek;
position = "{679, 10}";
},
{
name = top;
position = "{377, 700}";
}
);
layerId = "0E913661-75E6-4305-BF89-58B721FF741E";
paths = (
{
closed = 1;
nodes = (
"404 618 LINE",
"552 618 OFFCURVE",
"634 627 OFFCURVE",
"718 572 CURVE",
"733 583 LINE",
"709 624 OFFCURVE",
"704 668 OFFCURVE",
"722 715 CURVE",
"703 723 LINE",
"656 680 OFFCURVE",
"575 674 OFFCURVE",
"371 674 CURVE SMOOTH",
"223 674 OFFCURVE",
"152 663 OFFCURVE",
"79 725 CURVE",
"57 719 LINE",
"79 654 OFFCURVE",
"74 638 OFFCURVE",
"47 583 CURVE",
"67 568 LINE",
"138 618 OFFCURVE",
"168 617 OFFCURVE",
"346 618 CURVE",
"377 654 LINE"
);
},
{
closed = 1;
nodes = (
"513 342 LINE SMOOTH",
"564 233 OFFCURVE",
"628 151 OFFCURVE",
"567 -24 CURVE",
"590 -39 LINE",
"638 23 OFFCURVE",
"686 65 OFFCURVE",
"734 89 CURVE",
"608 296 OFFCURVE",
"492 502 OFFCURVE",
"386 709 CURVE",
"373 708 LINE",
"265 510 OFFCURVE",
"147 276 OFFCURVE",
"19 78 CURVE",
"56 64 OFFCURVE",
"106 29 OFFCURVE",
"167 -25 CURVE",
"190 -10 LINE",
"129 190 OFFCURVE",
"214 258 OFFCURVE",
"262 368 CURVE SMOOTH",
"388 658 LINE",
"364 660 LINE"
);
},
{
closed = 1;
nodes = (
"239 373 LINE",
"286 296 OFFCURVE",
"328 220 OFFCURVE",
"365 143 CURVE",
"381 142 LINE",
"422 227 OFFCURVE",
"462 303 OFFCURVE",
"503 368 CURVE",
"488 433 LINE",
"451 358 OFFCURVE",
"405 270 OFFCURVE",
"352 195 CURVE",
"398 195 LINE",
"350 274 OFFCURVE",
"303 352 OFFCURVE",
"257 431 CURVE"
);
}
);
width = 754;
}
);
unicode = 0041;
},
{
color = 3;
glyphname = B;
lastChange = "2019-04-21 16:58:28 +0000";
layers = (
{
anchors = (
{
name = bottom;
position = "{307, 0}";
},
{
name = top;
position = "{307, 700}";
}
);
layerId = "0E913661-75E6-4305-BF89-58B721FF741E";
paths = (
{
closed = 1;
nodes = (
"61 714 LINE",
"92 697 OFFCURVE",
"128 693 OFFCURVE",
"181 694 CURVE SMOOTH",
"249 695 OFFCURVE",
"318 711 OFFCURVE",
"367 711 CURVE SMOOTH",
"499 711 OFFCURVE",
"582 636 OFFCURVE",
"582 535 CURVE SMOOTH",
"582 423 OFFCURVE",
"458 343 OFFCURVE",
"376 365 CURVE",
"407 365 LINE",
"459 365 OFFCURVE",
"593 310 OFFCURVE",
"593 182 CURVE SMOOTH",
"593 69 OFFCURVE",
"515 -14 OFFCURVE",
"389 -14 CURVE SMOOTH",
"332 -14 OFFCURVE",
"228 8 OFFCURVE",
"159 8 CURVE SMOOTH",
"113 8 OFFCURVE",
"82 2 OFFCURVE",
"66 -8 CURVE",
"45 24 LINE",
"79 45 OFFCURVE",
"99 57 OFFCURVE",
"99 107 CURVE SMOOTH",
"100 553 LINE SMOOTH",
"100 642 OFFCURVE",
"86 648 OFFCURVE",
"40 691 CURVE"
);
},
{
closed = 1;
nodes = (
"194 147 LINE SMOOTH",
"194 71 OFFCURVE",
"255 30 OFFCURVE",
"340 30 CURVE SMOOTH",
"446 30 OFFCURVE",
"501 88 OFFCURVE",
"501 175 CURVE SMOOTH",
"501 226 OFFCURVE",
"468 346 OFFCURVE",
"290 346 CURVE SMOOTH",
"254 346 OFFCURVE",
"218 343 OFFCURVE",
"183 340 CURVE",
"183 388 LINE",
"218 385 OFFCURVE",
"255 385 OFFCURVE",
"291 385 CURVE SMOOTH",
"407 385 OFFCURVE",
"492 431 OFFCURVE",
"492 527 CURVE SMOOTH",
"492 609 OFFCURVE",
"432 672 OFFCURVE",
"327 672 CURVE SMOOTH",
"240 672 OFFCURVE",
"194 638 OFFCURVE",
"194 544 CURVE SMOOTH"
);
}
);
width = 639;
}
);
leftMetricsKey = H;
unicode = 0042;
},
{
color = 3;
glyphname = C;
lastChange = "2019-04-21 15:54:14 +0000";
layers = (
{
anchors = (
{
name = bottom;
position = "{283, 0}";
},
{
name = top;
position = "{283, 700}";
}
);
layerId = "0E913661-75E6-4305-BF89-58B721FF741E";
paths = (
{
closed = 1;
nodes = (
"583 709 LINE",
"535 649 LINE",
"499 685 OFFCURVE",
"415 712 OFFCURVE",
"350 712 CURVE SMOOTH",
"186 712 OFFCURVE",
"15 580 OFFCURVE",
"15 352 CURVE SMOOTH",
"15 129 OFFCURVE",
"111 -9 OFFCURVE",
"330 -9 CURVE SMOOTH",
"415 -9 OFFCURVE",
"479 18 OFFCURVE",
"525 50 CURVE",
"571 -7 LINE",
"597 3 LINE",
"575 75 OFFCURVE",
"582 166 OFFCURVE",
"595 223 CURVE",
"569 229 LINE",
"532 111 OFFCURVE",
"487 37 OFFCURVE",
"350 37 CURVE SMOOTH",
"173 37 OFFCURVE",
"115 191 OFFCURVE",
"115 352 CURVE SMOOTH",
"115 538 OFFCURVE",
"217 663 OFFCURVE",
"360 663 CURVE SMOOTH",
"445 663 OFFCURVE",
"520 623 OFFCURVE",
"558 497 CURVE",
"585 500 LINE",
"581 571 OFFCURVE",
"582 620 OFFCURVE",
"606 700 CURVE"
);
}
);
width = 636;
}
);
leftMetricsKey = O;
unicode = 0043;
},
{
color = 3;
glyphname = D;
lastChange = "2019-04-21 13:23:48 +0000";
layers = (
{
anchors = (
{
name = bottom;
position = "{395, 0}";
},
{
name = center;
position = "{395, 350}";
},
{
name = top;
position = "{395, 700}";
}
);
layerId = "0E913661-75E6-4305-BF89-58B721FF741E";
paths = (
{
closed = 1;
nodes = (
"51 678 LINE",
"101 656 OFFCURVE",
"122 639 OFFCURVE",
"121 557 CURVE SMOOTH",
"115 145 LINE SMOOTH",
"114 65 OFFCURVE",
"85 55 OFFCURVE",
"36 18 CURVE",
"56 -15 LINE",
"67 -12 OFFCURVE",
"115 21 OFFCURVE",
"154 21 CURVE",
"232 21 OFFCURVE",
"301 -10 OFFCURVE",
"418 -10 CURVE SMOOTH",
"603 -10 OFFCURVE",
"769 125 OFFCURVE",
"769 344 CURVE SMOOTH",
"769 568 OFFCURVE",
"625 711 OFFCURVE",
"409 711 CURVE SMOOTH",
"323 711 OFFCURVE",
"264 682 OFFCURVE",
"192 682 CURVE SMOOTH",
"158 682 OFFCURVE",
"97 700 OFFCURVE",
"62 704 CURVE"
);
},
{
closed = 1;
nodes = (
"225 613 OFFCURVE",
"292 664 OFFCURVE",
"411 664 CURVE SMOOTH",
"571 664 OFFCURVE",
"660 541 OFFCURVE",
"660 344 CURVE SMOOTH",
"660 149 OFFCURVE",
"546 31 OFFCURVE",
"414 31 CURVE SMOOTH",
"318 31 OFFCURVE",
"280 51 OFFCURVE",
"222 103 CURVE",
"218 240 OFFCURVE",
"218 377 OFFCURVE",
"222 514 CURVE SMOOTH"
);
}
);
width = 790;
}
);
unicode = 0044;
},
{
color = 3;
glyphname = E;
lastChange = "2019-04-21 13:40:21 +0000";
layers = (
{
anchors = (
{
name = bottom;
position = "{254, 0}";
},
{
name = ogonek;
position = "{464, 10}";
},
{
name = top;
position = "{254, 700}";
},
{
name = topleft;
position = "{11, 700}";
}
);
layerId = "0E913661-75E6-4305-BF89-58B721FF741E";
paths = (
{
closed = 1;
nodes = (
"40 44 OFFCURVE",
"160 -8 OFFCURVE",
"279 -8 CURVE SMOOTH",
"380 -8 OFFCURVE",
"459 13 OFFCURVE",
"498 -16 CURVE",
"515 -7 LINE",
"511 43 OFFCURVE",
"506 84 OFFCURVE",
"517 133 CURVE",
"493 141 LINE",
"462 69 OFFCURVE",
"389 27 OFFCURVE",
"301 27 CURVE SMOOTH",
"213 27 OFFCURVE",
"142 74 OFFCURVE",
"139 171 CURVE SMOOTH",
"136 265 OFFCURVE",
"204 339 OFFCURVE",
"309 339 CURVE SMOOTH",
"414 339 OFFCURVE",
"446 299 OFFCURVE",
"480 249 CURVE",
"502 257 LINE",
"492 309 OFFCURVE",
"474 357 OFFCURVE",
"504 438 CURVE",
"483 446 LINE",
"448 408 OFFCURVE",
"432 369 OFFCURVE",
"309 369 CURVE SMOOTH",
"207 369 OFFCURVE",
"137 432 OFFCURVE",
"140 521 CURVE SMOOTH",
"143 613 OFFCURVE",
"219 675 OFFCURVE",
"300 675 CURVE SMOOTH",
"404 675 OFFCURVE",
"455 633 OFFCURVE",
"484 526 CURVE",
"511 531 LINE",
"503 599 OFFCURVE",
"508 649 OFFCURVE",
"515 699 CURVE",
"500 707 LINE",
"456 687 OFFCURVE",
"409 709 OFFCURVE",
"298 709 CURVE SMOOTH",
"174 709 OFFCURVE",
"40 648 OFFCURVE",
"40 519 CURVE SMOOTH",
"40 406 OFFCURVE",
"107 363 OFFCURVE",
"188 344 CURVE",
"188 353 LINE",
"107 334 OFFCURVE",
"40 286 OFFCURVE",
"40 173 CURVE SMOOTH"
);
}
);
width = 557;
}
);
unicode = 0045;
},
{
color = 3;
glyphname = F;
lastChange = "2019-04-21 16:58:28 +0000";
layers = (
{
anchors = (
{
name = bottom;
position = "{269, 0}";
},
{
name = top;
position = "{269, 700}";
}
);
layerId = "0E913661-75E6-4305-BF89-58B721FF741E";
paths = (
{
closed = 1;
nodes = (
"44 16 LINE",
"96 53 OFFCURVE",
"96 53 OFFCURVE",
"96 118 CURVE SMOOTH",
"96 542 LINE SMOOTH",
"96 625 OFFCURVE",
"77 641 OFFCURVE",
"40 673 CURVE",
"44 699 LINE",
"545 699 LINE",
"543 653 OFFCURVE",
"544 601 OFFCURVE",
"546 548 CURVE",
"516 544 LINE",
"503 597 OFFCURVE",
"462 658 OFFCURVE",
"310 658 CURVE SMOOTH",
"208 658 OFFCURVE",
"189 651 OFFCURVE",
"189 606 CURVE SMOOTH",
"189 381 LINE",
"417 382 LINE SMOOTH",
"476 382 OFFCURVE",
"483 433 OFFCURVE",
"501 482 CURVE",
"528 479 LINE",
"514 393 OFFCURVE",
"516 334 OFFCURVE",
"528 248 CURVE",
"499 244 LINE",
"479 283 OFFCURVE",
"486 333 OFFCURVE",
"416 333 CURVE SMOOTH",
"190 334 LINE",
"192 105 LINE SMOOTH",
"193 45 OFFCURVE",
"219 44 OFFCURVE",
"313 21 CURVE",
"313 -10 LINE",
"178 1 OFFCURVE",
"148 2 OFFCURVE",
"44 -10 CURVE"
);
}
);
width = 561;
}
);
leftMetricsKey = H;
unicode = 0046;
},
{
color = 3;
glyphname = G;
lastChange = "2019-04-23 09:40:02 +0000";
layers = (
{
anchors = (
{
name = bottom;
position = "{344, 0}";
},
{
name = top;
position = "{344, 700}";
}
);
layerId = "0E913661-75E6-4305-BF89-58B721FF741E";
paths = (
{
closed = 1;
nodes = (
"685 537 LINE",
"670 569 OFFCURVE",
"641 650 OFFCURVE",
"657 705 CURVE",
"639 716 LINE",
"624 700 OFFCURVE",
"601 683 OFFCURVE",
"584 671 CURVE",
"539 681 OFFCURVE",
"484 706 OFFCURVE",
"385 706 CURVE SMOOTH",
"241 706 OFFCURVE",
"15 587 OFFCURVE",
"15 339 CURVE SMOOTH",
"15 141 OFFCURVE",
"164 -7 OFFCURVE",
"355 -7 CURVE SMOOTH",
"570 -7 OFFCURVE",
"669 159 OFFCURVE",
"669 299 CURVE SMOOTH",
"669 456 OFFCURVE",
"562 578 OFFCURVE",
"423 578 CURVE SMOOTH",
"266 578 OFFCURVE",
"193 402 OFFCURVE",
"319 288 CURVE",
"340 303 LINE",
"265 404 OFFCURVE",
"301 521 OFFCURVE",
"415 521 CURVE SMOOTH",
"515 521 OFFCURVE",
"574 418 OFFCURVE",
"574 289 CURVE SMOOTH",
"574 165 OFFCURVE",
"491 33 OFFCURVE",
"355 33 CURVE SMOOTH",
"207 33 OFFCURVE",
"119 160 OFFCURVE",
"119 348 CURVE SMOOTH",
"119 556 OFFCURVE",
"256 662 OFFCURVE",
"388 662 CURVE SMOOTH",
"517 662 OFFCURVE",
"608 607 OFFCURVE",
"656 527 CURVE"
);
}
);
width = 700;
}
);
leftMetricsKey = O;
rightMetricsKey = O;
unicode = 0047;
},
{
color = 3;
glyphname = H;
lastChange = "2019-04-21 13:44:45 +0000";
layers = (
{
anchors = (
{
name = bottom;
position = "{414, 0}";
},
{
name = center;
position = "{414, 350}";
},
{
name = top;
position = "{414, 700}";
},
{
name = topleft;
position = "{25, 700}";
}
);
layerId = "0E913661-75E6-4305-BF89-58B721FF741E";
paths = (
{
closed = 1;
nodes = (
"98 632 OFFCURVE",
"99 603 OFFCURVE",
"99 514 CURVE SMOOTH",
"99 154 LINE SMOOTH",
"99 63 OFFCURVE",
"78 33 OFFCURVE",
"42 11 CURVE",
"47 -13 LINE",
"118 3 OFFCURVE",
"200 0 OFFCURVE",
"252 -9 CURVE",
"254 14 LINE",
"210 43 OFFCURVE",
"196 66 OFFCURVE",
"197 157 CURVE SMOOTH",
"199 514 LINE SMOOTH",
"199 603 OFFCURVE",
"200 638 OFFCURVE",
"256 691 CURVE",
"251 712 LINE",
"203 700 OFFCURVE",
"121 695 OFFCURVE",
"47 712 CURVE",
"40 690 LINE"
);
},
{
closed = 1;
nodes = (
"99 309 LINE",
"379 311 LINE",
"385 330 LINE",
"373 341 OFFCURVE",
"348 367 OFFCURVE",
"348 412 CURVE SMOOTH",
"348 453 OFFCURVE",
"381 482 OFFCURVE",
"413 482 CURVE SMOOTH",
"444 482 OFFCURVE",
"480 453 OFFCURVE",
"480 412 CURVE SMOOTH",
"480 367 OFFCURVE",
"452 340 OFFCURVE",
"440 329 CURVE",
"446 311 LINE",
"717 308 LINE",
"770 341 LINE",
"770 349 LINE",
"717 373 LINE",
"511 371 LINE",
"537 453 OFFCURVE",
"494 517 OFFCURVE",
"412 517 CURVE SMOOTH",
"411 517 LINE SMOOTH",
"336 517 OFFCURVE",
"287 453 OFFCURVE",
"315 371 CURVE",
"99 373 LINE",
"56 349 LINE",
"56 341 LINE"
);
},
{
closed = 1;
nodes = (
"772 712 LINE",
"698 695 OFFCURVE",
"616 700 OFFCURVE",
"568 712 CURVE",
"562 691 LINE",
"618 638 OFFCURVE",
"618 621 OFFCURVE",
"619 514 CURVE SMOOTH",
"621 157 LINE SMOOTH",
"622 66 OFFCURVE",
"608 53 OFFCURVE",
"564 14 CURVE",
"569 -9 LINE",
"621 0 OFFCURVE",
"701 3 OFFCURVE",
"772 -13 CURVE",
"776 11 LINE",
"740 33 OFFCURVE",
"719 63 OFFCURVE",
"719 154 CURVE SMOOTH",
"719 514 LINE SMOOTH",
"719 603 OFFCURVE",
"720 632 OFFCURVE",
"778 690 CURVE"
);
}
);
width = 818;
}
);
unicode = 0048;
},
{
color = 3;
glyphname = I;
lastChange = "2019-04-21 13:45:10 +0000";
layers = (
{
anchors = (
{
name = bottom;
position = "{258, 0}";
},
{
name = ogonek;
position = "{464, 10}";
},
{
name = top;
position = "{258, 700}";
},
{
name = topleft;
position = "{20, 700}";
}
);
layerId = "0E913661-75E6-4305-BF89-58B721FF741E";
paths = (
{
closed = 1;
nodes = (
"48 -10 LINE",
"140 4 OFFCURVE",
"359 4 OFFCURVE",
"482 -10 CURVE",
"485 18 LINE",
"372 42 OFFCURVE",
"315 40 OFFCURVE",
"315 140 CURVE SMOOTH",
"313 545 LINE SMOOTH",
"312 647 OFFCURVE",
"361 668 OFFCURVE",
"475 683 CURVE",
"471 710 LINE",
"334 700 OFFCURVE",
"194 697 OFFCURVE",
"48 710 CURVE",
"43 683 LINE",
"148 668 OFFCURVE",
"212 648 OFFCURVE",
"213 545 CURVE SMOOTH",
"215 140 LINE SMOOTH",
"215 39 OFFCURVE",
"164 44 OFFCURVE",
"43 18 CURVE"
);
},
{
closed = 1;
nodes = (
"149 343 LINE",
"315 343 LINE",
"383 373 LINE",
"383 389 LINE",
"213 389 LINE",
"149 360 LINE"
);
}
);
width = 515;
}
);
unicode = 0049;
},
{
color = 6;
glyphname = J;
lastChange = "2019-03-12 16:36:17 +0000";
layers = (
{
layerId = "0E913661-75E6-4305-BF89-58B721FF741E";
paths = (
{
closed = 1;
nodes = (
"64 -46 OFFCURVE",
"122 -111 OFFCURVE",
"212 -111 CURVE SMOOTH",
"284 -111 OFFCURVE",
"335 -54 OFFCURVE",
"335 48 CURVE SMOOTH",
"335 140 OFFCURVE",
"240 159 OFFCURVE",
"240 199 CURVE SMOOTH",
"240 292 OFFCURVE",
"312 499 OFFCURVE",
"332 619 CURVE",
"314 644 OFFCURVE",
"174 670 OFFCURVE",
"19 678 CURVE",
"22 713 LINE",
"172 703 OFFCURVE",
"297 690 OFFCURVE",
"407 722 CURVE",
"408 722 LINE",
"426 708 LINE",
"379 599 OFFCURVE",
"358 525 OFFCURVE",
"358 435 CURVE SMOOTH",
"358 298 OFFCURVE",
"399 214 OFFCURVE",
"399 60 CURVE SMOOTH",
"399 -59 OFFCURVE",
"341 -153 OFFCURVE",
"221 -153 CURVE SMOOTH",
"105 -153 OFFCURVE",
"42 -80 OFFCURVE",
"5 -15 CURVE",
"30 1 LINE"
);
}
);
width = 439;
}
);
unicode = 004A;
},
{
color = 6;
glyphname = K;
lastChange = "2019-03-12 16:36:17 +0000";
layers = (
{
layerId = "0E913661-75E6-4305-BF89-58B721FF741E";
paths = (
{
closed = 1;
nodes = (
"685 661 OFFCURVE",
"630 648 OFFCURVE",
"606 573 CURVE SMOOTH",
"567 452 OFFCURVE",
"427 371 OFFCURVE",
"408 371 CURVE",
"429 385 LINE",
"545 360 OFFCURVE",
"675 269 OFFCURVE",
"675 185 CURVE SMOOTH",
"675 155 OFFCURVE",
"632 128 OFFCURVE",
"632 84 CURVE SMOOTH",
"632 67 OFFCURVE",
"649 38 OFFCURVE",
"715 85 CURVE",
"727 68 LINE",
"673 -36 OFFCURVE",
"536 -29 OFFCURVE",
"536 59 CURVE SMOOTH",
"536 102 OFFCURVE",
"555 157 OFFCURVE",
"555 214 CURVE SMOOTH",
"555 298 OFFCURVE",
"482 357 OFFCURVE",
"346 357 CURVE SMOOTH",
"315 357 LINE SMOOTH",
"291 357 OFFCURVE",
"257 344 OFFCURVE",
"257 292 CURVE SMOOTH",
"257 163 LINE SMOOTH",
"257 81 OFFCURVE",
"272 48 OFFCURVE",
"360 15 CURVE",
"354 -10 LINE",
"272 3 OFFCURVE",
"156 4 OFFCURVE",
"70 -10 CURVE",
"64 14 LINE",
"157 52 OFFCURVE",
"157 70 OFFCURVE",
"157 148 CURVE SMOOTH",
"157 343 LINE",
"115 378 LINE",
"115 389 LINE",
"158 421 LINE",
"157 569 LINE SMOOTH",
"157 623 OFFCURVE",
"133 644 OFFCURVE",
"50 679 CURVE",
"63 707 LINE",
"177 687 OFFCURVE",
"240 685 OFFCURVE",
"352 705 CURVE",
"359 676 LINE",
"280 646 OFFCURVE",
"254 629 OFFCURVE",
"255 566 CURVE SMOOTH",
"258 396 LINE",
"335 396 LINE SMOOTH",
"515 396 OFFCURVE",
"462 601 OFFCURVE",
"567 700 CURVE",
"747 700 LINE",
"747 675 LINE"
);
}
);
width = 732;
}
);
unicode = 004B;
},
{
color = 3;
glyphname = L;
lastChange = "2019-01-16 10:30:28 +0000";
layers = (
{
anchors = (
{
name = bottom;
position = "{286, 0}";
},
{
name = center;
position = "{286, 350}";
},
{
name = top;
position = "{286, 700}";
},
{
name = topright;
position = "{551, 700}";
}
);
layerId = "0E913661-75E6-4305-BF89-58B721FF741E";
paths = (
{
closed = 1;
nodes = (
"125 698 OFFCURVE",
"197 698 OFFCURVE",
"272 708 CURVE",
"278 682 LINE",
"220 663 OFFCURVE",
"190 643 OFFCURVE",
"190 580 CURVE SMOOTH",
"189 70 LINE",
"380 80 LINE SMOOTH",
"461 84 OFFCURVE",
"486 144 OFFCURVE",
"503 228 CURVE",
"533 224 LINE",
"522 152 OFFCURVE",
"524 76 OFFCURVE",
"553 4 CURVE",
"543 -11 LINE",
"380 5 OFFCURVE",
"211 2 OFFCURVE",
"43 -14 CURVE",
"34 13 LINE",
"83 48 OFFCURVE",
"89 60 OFFCURVE",
"89 120 CURVE SMOOTH",
"89 553 LINE SMOOTH",
"89 616 OFFCURVE",
"102 652 OFFCURVE",
"39 687 CURVE",
"45 708 LINE"
);
}
);
width = 571;
}
);
unicode = 004C;
},
{
color = 3;
glyphname = M;
lastChange = "2019-01-11 09:13:12 +0000";
layers = (
{
anchors = (
{
name = bottom;
position = "{408, 0}";
},
{
name = top;
position = "{408, 700}";
}
);
layerId = "0E913661-75E6-4305-BF89-58B721FF741E";
paths = (
{
closed = 1;
nodes = (
"187 -15 LINE",
"204 0 LINE",
"159 148 OFFCURVE",
"207 267 OFFCURVE",
"238 378 CURVE SMOOTH",
"278 522 LINE",
"417 2 LINE",
"441 2 LINE",
"607 522 LINE",
"643 378 LINE SMOOTH",
"672 262 OFFCURVE",
"718 148 OFFCURVE",
"673 0 CURVE",
"690 -15 LINE",
"848 83 LINE",
"751 273 OFFCURVE",
"715 472 OFFCURVE",
"634 709 CURVE",
"610 710 LINE",
"434 141 LINE",
"288 709 LINE",
"263 709 LINE",
"192 472 OFFCURVE",
"126 273 OFFCURVE",
"29 83 CURVE"
);
}
);
width = 815;
}
);
unicode = 004D;
},
{
color = 3;
glyphname = N;
lastChange = "2019-04-21 13:46:53 +0000";
layers = (
{
anchors = (
{
name = bottom;
position = "{462, 0}";
},
{
name = top;
position = "{462, 700}";
}
);
layerId = "0E913661-75E6-4305-BF89-58B721FF741E";
paths = (
{
closed = 1;
nodes = (
"64 -10 LINE",
"137 4 OFFCURVE",
"251 4 OFFCURVE",
"354 -10 CURVE",
"357 18 LINE",
"264 42 OFFCURVE",
"252 40 OFFCURVE",
"252 140 CURVE SMOOTH",
"250 545 LINE SMOOTH",
"249 647 OFFCURVE",
"253 638 OFFCURVE",
"367 683 CURVE",
"363 710 LINE",
"221 680 OFFCURVE",
"191 677 OFFCURVE",
"45 710 CURVE",
"40 683 LINE",
"145 648 OFFCURVE",
"149 618 OFFCURVE",
"150 515 CURVE SMOOTH",
"152 140 LINE SMOOTH",
"153 39 OFFCURVE",
"161 44 OFFCURVE",
"59 18 CURVE"
);
},
{
closed = 1;
nodes = (
"90 337 LINE",
"247 337 LINE",
"316 366 LINE",
"316 380 LINE",
"151 380 LINE",
"90 353 LINE"
);
},
{
closed = 1;
nodes = (
"601 -10 LINE",
"663 4 OFFCURVE",
"777 4 OFFCURVE",
"860 -10 CURVE",
"863 18 LINE",
"790 42 OFFCURVE",
"778 40 OFFCURVE",
"778 140 CURVE SMOOTH",
"776 545 LINE SMOOTH",
"775 647 OFFCURVE",
"779 668 OFFCURVE",
"863 683 CURVE",
"859 710 LINE",
"747 700 OFFCURVE",
"717 697 OFFCURVE",
"591 710 CURVE",
"586 683 LINE",
"671 668 OFFCURVE",
"675 648 OFFCURVE",
"676 545 CURVE SMOOTH",
"678 140 LINE SMOOTH",
"678 39 OFFCURVE",
"687 44 OFFCURVE",
"596 18 CURVE"
);
},
{
closed = 1;
nodes = (
"616 337 LINE",
"773 337 LINE",
"842 366 LINE",
"842 380 LINE",
"677 380 LINE",
"616 353 LINE"
);
},
{
closed = 1;
nodes = (
"697 54 LINE",
"719 88 LINE",
"249 647 LINE",
"217 622 LINE"
);
}
);
width = 903;
}
);
leftMetricsKey = H;
rightMetricsKey = H;
unicode = 004E;
},
{
color = 3;
glyphname = O;
lastChange = "2019-04-21 13:47:31 +0000";
layers = (
{
anchors = (
{
name = bottom;
position = "{371, 0}";
},
{
name = center;
position = "{371, 350}";
},
{
name = ogonek;
position = "{667, 10}";
},
{
name = top;
position = "{371, 700}";
},
{
name = topleft;
position = "{20, 700}";
},
{
name = topright;
position = "{721, 700}";
}
);
layerId = "0E913661-75E6-4305-BF89-58B721FF741E";
paths = (
{
closed = 1;
nodes = (
"171 712 OFFCURVE",
"15 552 OFFCURVE",
"15 351 CURVE SMOOTH",
"15 154 OFFCURVE",
"171 -10 OFFCURVE",
"369 -10 CURVE SMOOTH",
"569 -10 OFFCURVE",
"726 154 OFFCURVE",
"726 351 CURVE SMOOTH",
"726 552 OFFCURVE",
"569 712 OFFCURVE",
"369 712 CURVE SMOOTH"
);
},
{
closed = 1;
nodes = (
"219 35 OFFCURVE",
"125 165 OFFCURVE",
"125 351 CURVE SMOOTH",
"125 532 OFFCURVE",
"210 667 OFFCURVE",
"369 667 CURVE SMOOTH",
"514 667 OFFCURVE",
"616 530 OFFCURVE",
"616 351 CURVE SMOOTH",
"616 179 OFFCURVE",
"526 35 OFFCURVE",
"369 35 CURVE SMOOTH"
);
}
);
width = 741;
}
);
unicode = 004F;
},
{
color = 3;
glyphname = P;
lastChange = "2019-04-21 13:58:09 +0000";
layers = (
{
anchors = (
{
name = bottom;
position = "{350, 0}";
},
{
name = top;
position = "{350, 700}";
}
);
layerId = "0E913661-75E6-4305-BF89-58B721FF741E";
paths = (
{
closed = 1;
nodes = (
"219 248 LINE",
"265 189 OFFCURVE",
"332 165 OFFCURVE",
"385 165 CURVE SMOOTH",
"495 165 OFFCURVE",
"586 259 OFFCURVE",
"586 420 CURVE SMOOTH",
"586 571 OFFCURVE",
"509 673 OFFCURVE",
"388 673 CURVE SMOOTH",
"313 673 OFFCURVE",
"257 649 OFFCURVE",
"221 620 CURVE",
"226 138 LINE SMOOTH",
"227 60 OFFCURVE",
"233 50 OFFCURVE",
"316 17 CURVE",
"311 -9 LINE",
"209 8 OFFCURVE",
"163 8 OFFCURVE",
"81 -9 CURVE",
"73 13 LINE",
"130 51 OFFCURVE",
"126 76 OFFCURVE",
"126 133 CURVE SMOOTH",
"127 250 LINE SMOOTH",
"127 284 OFFCURVE",
"125 320 OFFCURVE",
"90 339 CURVE",
"88 351 LINE",
"98 363 OFFCURVE",
"112 371 OFFCURVE",
"126 376 CURVE",
"126 404 OFFCURVE",
"126 531 OFFCURVE",
"126 568 CURVE SMOOTH",
"126 642 OFFCURVE",
"106 658 OFFCURVE",
"40 686 CURVE",
"51 713 LINE",
"170 668 OFFCURVE",
"262 710 OFFCURVE",
"404 710 CURVE SMOOTH",
"549 710 OFFCURVE",
"684 611 OFFCURVE",
"684 416 CURVE SMOOTH",
"684 195 OFFCURVE",
"522 106 OFFCURVE",
"383 104 CURVE",
"306 133 OFFCURVE",
"251 171 OFFCURVE",
"219 190 CURVE"
);
}
);
width = 714;
}
);
leftMetricsKey = H;
unicode = 0050;
},
{
color = 3;
glyphname = Q;
lastChange = "2019-03-28 10:57:31 +0000";
layers = (
{
anchors = (
{
name = bottom;
position = "{470, 0}";
},
{
name = top;
position = "{470, 700}";
}
);
components = (
{
name = O;
}
);
layerId = "0E913661-75E6-4305-BF89-58B721FF741E";
paths = (
{
closed = 1;
nodes = (
"560 -10 OFFCURVE",
"672 63 OFFCURVE",
"774 63 CURVE SMOOTH",
"846 63 OFFCURVE",
"789 -9 OFFCURVE",
"856 -9 CURVE SMOOTH",
"888 -9 OFFCURVE",
"912 27 OFFCURVE",
"918 50 CURVE",
"901 56 LINE",
"882 26 OFFCURVE",
"859 21 OFFCURVE",
"859 46 CURVE SMOOTH",
"859 79 OFFCURVE",
"876 149 OFFCURVE",
"802 149 CURVE SMOOTH",
"727 149 OFFCURVE",
"608 62 OFFCURVE",
"535 47 CURVE",
"389 -10 LINE"
);
}
);
width = 918;
}
);
leftMetricsKey = O;
unicode = 0051;
},
{
color = 3;
glyphname = Q_strok;
lastChange = "2019-03-28 15:38:35 +0000";
layers = (
{
components = (
{
name = O;
}
);
layerId = "0E913661-75E6-4305-BF89-58B721FF741E";
paths = (
{
closed = 0;
nodes = (
"388 -10 LINE"
);
},
{
closed = 1;
nodes = (
"560 -10 OFFCURVE",
"649 53 OFFCURVE",
"751 53 CURVE SMOOTH",
"823 53 OFFCURVE",
"829 -9 OFFCURVE",
"896 -9 CURVE SMOOTH",
"928 -9 OFFCURVE",
"952 27 OFFCURVE",
"958 50 CURVE",
"941 56 LINE",
"922 26 OFFCURVE",
"899 21 OFFCURVE",
"899 46 CURVE SMOOTH",
"899 79 OFFCURVE",
"899 125 OFFCURVE",
"825 125 CURVE SMOOTH",
"750 125 OFFCURVE",
"678 52 OFFCURVE",
"535 47 CURVE",
"389 -10 LINE"
);
},
{
closed = 1;
nodes = (
"851 371 OFFCURVE",
"871 373 OFFCURVE",
"897 363 CURVE",
"870 268 OFFCURVE",
"791 124 OFFCURVE",
"665 -9 CURVE",
"702 -13 LINE",
"825 130 OFFCURVE",
"875 228 OFFCURVE",
"962 367 CURVE",
"890 428 LINE",
"808 382 LINE",
"825 361 LINE"
);
}
);
width = 990;
}
);
},
{
color = 3;
glyphname = R;
lastChange = "2019-04-24 17:08:46 +0000";
layers = (
{
anchors = (
{
name = bottom;
position = "{379, 0}";
},
{
name = top;
position = "{379, 700}";
}
);
layerId = "0E913661-75E6-4305-BF89-58B721FF741E";
paths = (
{
closed = 1;
nodes = (
"105 389 LINE",
"148 421 LINE",
"147 566 LINE SMOOTH",
"147 620 OFFCURVE",
"123 641 OFFCURVE",
"40 676 CURVE",
"53 704 LINE",
"197 674 OFFCURVE",
"248 710 OFFCURVE",
"395 710 CURVE SMOOTH",
"481 710 OFFCURVE",
"655 676 OFFCURVE",
"655 542 CURVE SMOOTH",
"655 390 OFFCURVE",
"447 371 OFFCURVE",
"428 371 CURVE",
"419 385 LINE",
"535 360 OFFCURVE",
"665 269 OFFCURVE",
"665 185 CURVE SMOOTH",
"665 155 OFFCURVE",
"622 128 OFFCURVE",
"622 84 CURVE SMOOTH",
"622 67 OFFCURVE",
"639 38 OFFCURVE",
"705 85 CURVE",
"717 68 LINE",
"663 -36 OFFCURVE",
"526 -29 OFFCURVE",
"526 59 CURVE SMOOTH",
"526 102 OFFCURVE",
"545 157 OFFCURVE",
"545 214 CURVE SMOOTH",
"545 298 OFFCURVE",
"472 357 OFFCURVE",
"336 357 CURVE SMOOTH",
"305 357 LINE SMOOTH",
"281 357 OFFCURVE",
"247 344 OFFCURVE",
"247 292 CURVE SMOOTH",
"247 163 LINE SMOOTH",
"247 81 OFFCURVE",
"262 48 OFFCURVE",
"350 15 CURVE",
"344 -10 LINE",
"262 3 OFFCURVE",
"146 4 OFFCURVE",
"60 -10 CURVE",
"54 14 LINE",
"147 52 OFFCURVE",
"147 70 OFFCURVE",
"147 148 CURVE SMOOTH",
"147 343 LINE",
"105 378 LINE"
);
},
{
closed = 1;
nodes = (
"293 668 OFFCURVE",
"244 626 OFFCURVE",
"245 563 CURVE SMOOTH",
"248 396 LINE",
"403 396 LINE SMOOTH",
"499 396 OFFCURVE",
"545 471 OFFCURVE",
"543 537 CURVE SMOOTH",
"540 621 OFFCURVE",
"457 668 OFFCURVE",
"382 668 CURVE SMOOTH"
);
}
);
width = 774;
}
);
leftMetricsKey = H;
unicode = 0052;
},
{
color = 3;
glyphname = S;
lastChange = "2019-04-24 17:08:46 +0000";
layers = (
{
anchors = (
{
name = bottom;
position = "{363, 0}";
},
{
name = top;
position = "{363, 700}";
}
);
layerId = "0E913661-75E6-4305-BF89-58B721FF741E";
paths = (
{
closed = 1;
nodes = (
"126 71 OFFCURVE",
"120 150 OFFCURVE",
"69 249 CURVE",
"101 263 LINE",
"187 111 OFFCURVE",
"271 46 OFFCURVE",
"399 45 CURVE SMOOTH",
"517 44 OFFCURVE",
"597 90 OFFCURVE",
"597 199 CURVE SMOOTH",
"597 285 OFFCURVE",
"534 327 OFFCURVE",
"440 327 CURVE SMOOTH",
"372 327 OFFCURVE",
"333 324 OFFCURVE",
"263 324 CURVE SMOOTH",
"161 324 OFFCURVE",
"65 366 OFFCURVE",
"65 484 CURVE SMOOTH",
"65 656 OFFCURVE",
"227 712 OFFCURVE",
"373 712 CURVE SMOOTH",
"494 712 OFFCURVE",
"542 689 OFFCURVE",
"593 689 CURVE SMOOTH",
"622 689 OFFCURVE",
"645 698 OFFCURVE",
"677 740 CURVE",
"698 729 LINE",
"658 625 OFFCURVE",
"667 562 OFFCURVE",
"692 485 CURVE",
"663 471 LINE",
"599 602 OFFCURVE",
"498 672 OFFCURVE",
"374 672 CURVE SMOOTH",
"260 672 OFFCURVE",
"165 620 OFFCURVE",
"165 527 CURVE SMOOTH",
"165 459 OFFCURVE",
"213 418 OFFCURVE",
"286 418 CURVE SMOOTH",
"345 418 OFFCURVE",
"381 422 OFFCURVE",
"451 422 CURVE SMOOTH",
"594 422 OFFCURVE",
"685 356 OFFCURVE",
"685 219 CURVE SMOOTH",
"685 53 OFFCURVE",
"518 -9 OFFCURVE",
"407 -9 CURVE SMOOTH",
"326 -9 OFFCURVE",
"190 33 OFFCURVE",
"156 33 CURVE SMOOTH",
"135 33 OFFCURVE",
"89 0 OFFCURVE",
"58 -29 CURVE",
"40 -9 LINE"
);
}
);
width = 725;
}
);
unicode = 0053;
},
{
color = 3;
glyphname = T;
lastChange = "2019-04-21 15:55:01 +0000";
layers = (
{
anchors = (
{
name = bottom;
position = "{393, 0}";
},
{
name = center;
position = "{393, 350}";
},
{
name = top;
position = "{393, 700}";
}
);
layerId = "0E913661-75E6-4305-BF89-58B721FF741E";
paths = (
{
closed = 1;
nodes = (
"196 22 LINE",
"300 58 OFFCURVE",
"335 78 OFFCURVE",
"338 187 CURVE SMOOTH",
"353 658 LINE",
"385 719 LINE",
"400 718 LINE",
"431 658 LINE",
"452 188 LINE SMOOTH",
"457 78 OFFCURVE",
"489 54 OFFCURVE",
"593 23 CURVE",
"593 -8 LINE",
"445 3 OFFCURVE",
"334 3 OFFCURVE",
"196 -8 CURVE"
);
},
{
closed = 1;
nodes = (
"51 621 OFFCURVE",
"54 681 OFFCURVE",
"39 747 CURVE",
"67 757 LINE",
"85 728 OFFCURVE",
"143 680 OFFCURVE",
"311 680 CURVE SMOOTH",
"485 681 LINE SMOOTH",
"643 681 OFFCURVE",
"701 729 OFFCURVE",
"719 758 CURVE",
"747 748 LINE",
"732 682 OFFCURVE",
"735 622 OFFCURVE",
"750 536 CURVE",
"714 528 LINE",
"694 585 OFFCURVE",
"653 613 OFFCURVE",
"494 613 CURVE SMOOTH",
"322 613 LINE SMOOTH",
"133 612 OFFCURVE",
"92 584 OFFCURVE",
"72 527 CURVE",
"36 535 LINE"
);
}
);
width = 786;
}
);
unicode = 0054;
},
{
color = 6;
glyphname = U;
lastChange = "2019-03-12 16:36:17 +0000";
layers = (
{
anchors = (
{
name = bottom;
position = "{396, 0}";
},
{
name = ogonek;
position = "{715, 10}";
},
{
name = top;
position = "{396, 700}";
},
{
name = topright;
position = "{775, 700}";
}
);
layerId = "0E913661-75E6-4305-BF89-58B721FF741E";
paths = (
{
closed = 1;
nodes = (
"47 708 LINE",
"133 700 OFFCURVE",
"224 700 OFFCURVE",
"310 708 CURVE",
"311 684 LINE",
"273 664 OFFCURVE",
"239 619 OFFCURVE",
"232 559 CURVE SMOOTH",
"222 470 OFFCURVE",
"221 317 OFFCURVE",
"221 256 CURVE SMOOTH",
"221 118 OFFCURVE",
"289 33 OFFCURVE",
"417 33 CURVE SMOOTH",
"537 33 OFFCURVE",
"617 107 OFFCURVE",
"617 236 CURVE SMOOTH",
"617 300 OFFCURVE",
"612 506 OFFCURVE",
"608 560 CURVE SMOOTH",
"604 618 OFFCURVE",
"576 659 OFFCURVE",
"514 684 CURVE",
"515 708 LINE",
"601 697 OFFCURVE",
"678 697 OFFCURVE",
"764 708 CURVE",
"765 679 LINE",
"726 659 OFFCURVE",
"679 628 OFFCURVE",
"678 559 CURVE SMOOTH",
"677 469 OFFCURVE",
"668 295 OFFCURVE",
"668 237 CURVE SMOOTH",
"668 86 OFFCURVE",
"596 -10 OFFCURVE",
"394 -10 CURVE SMOOTH",
"201 -10 OFFCURVE",
"126 99 OFFCURVE",
"126 236 CURVE SMOOTH",
"126 300 OFFCURVE",
"128 507 OFFCURVE",
"126 560 CURVE SMOOTH",
"123 625 OFFCURVE",
"93 656 OFFCURVE",
"45 684 CURVE"
);
}
);
width = 810;
}
);
unicode = 0055;
},
{
color = 3;
glyphname = V;
lastChange = "2019-01-11 09:13:12 +0000";
layers = (
{
anchors = (
{
name = bottom;
position = "{371, 0}";
},
{
name = top;
position = "{371, 700}";
}
);
layerId = "0E913661-75E6-4305-BF89-58B721FF741E";
paths = (
{
closed = 1;
nodes = (
"3 632 LINE",
"70 653 OFFCURVE",
"136 680 OFFCURVE",
"203 711 CURVE",
"215 685 LINE",
"182 642 OFFCURVE",
"166 609 OFFCURVE",
"195 541 CURVE SMOOTH",
"408 42 LINE",
"373 42 LINE",
"590 521 LINE SMOOTH",
"620 588 OFFCURVE",
"626 621 OFFCURVE",
"560 690 CURVE",
"573 711 LINE",
"631 680 OFFCURVE",
"688 657 OFFCURVE",
"746 640 CURVE",
"389 -11 LINE",
"368 -11 LINE"
);
}
);
width = 741;
}
);
unicode = 0056;
},
{
color = 6;
glyphname = W;
lastChange = "2019-03-12 16:36:17 +0000";
layers = (
{
layerId = "0E913661-75E6-4305-BF89-58B721FF741E";
paths = (
{
closed = 1;
nodes = (
"5 632 LINE",
"72 653 OFFCURVE",
"138 680 OFFCURVE",
"205 711 CURVE",
"217 685 LINE",
"184 642 OFFCURVE",
"165 607 OFFCURVE",
"197 541 CURVE SMOOTH",
"440 42 LINE",
"405 42 LINE",
"642 521 LINE SMOOTH",
"674 586 OFFCURVE",
"678 621 OFFCURVE",
"612 690 CURVE",
"625 711 LINE",
"683 680 OFFCURVE",
"740 657 OFFCURVE",
"798 640 CURVE",
"421 -11 LINE",
"400 -11 LINE"
);
},
{
closed = 1;
nodes = (
"249 594 LINE",
"281 603 OFFCURVE",
"341 626 OFFCURVE",
"373 640 CURVE",
"378 629 LINE",
"363 608 OFFCURVE",
"348 583 OFFCURVE",
"359 551 CURVE SMOOTH",
"443 299 LINE",
"426 299 LINE",
"512 532 LINE SMOOTH",
"524 564 OFFCURVE",
"529 588 OFFCURVE",
"498 620 CURVE",
"508 638 LINE",
"534 624 OFFCURVE",
"578 605 OFFCURVE",
"605 597 CURVE",
"434 274 LINE",
"424 274 LINE"
);
}
);
width = 803;
}
);
unicode = 0057;
},
{
color = 6;
glyphname = X;
lastChange = "2019-03-12 16:36:17 +0000";
layers = (
{
anchors = (
{
name = bottom;
position = "{354, 0}";
},
{
name = top;
position = "{354, 700}";
}
);
layerId = "0E913661-75E6-4305-BF89-58B721FF741E";
paths = (
{
closed = 0;
nodes = (
"49 78 LINE"
);
},
{
closed = 1;
nodes = (
"467 161 LINE SMOOTH",
"537 80 OFFCURVE",
"535 63 OFFCURVE",
"472 -21 CURVE",
"488 -39 LINE",
"542 11 OFFCURVE",
"596 56 OFFCURVE",
"650 94 CURVE",
"261 552 LINE SMOOTH",
"217 604 OFFCURVE",
"238 644 OFFCURVE",
"277 696 CURVE",
"260 717 LINE",
"204 679 OFFCURVE",
"143 643 OFFCURVE",
"79 611 CURVE"
);
},
{
closed = 1;
nodes = (
"49 78 LINE",
"117 43 OFFCURVE",
"180 4 OFFCURVE",
"240 -39 CURVE",
"259 -18 LINE",
"176 56 OFFCURVE",
"166 86 OFFCURVE",
"224 161 CURVE SMOOTH",
"353 327 LINE",
"334 368 LINE"
);
},
{
closed = 1;
nodes = (
"628 621 LINE",
"566 649 OFFCURVE",
"505 681 OFFCURVE",
"447 717 CURVE",
"429 694 LINE",
"498 627 OFFCURVE",
"533 612 OFFCURVE",
"483 549 CURVE SMOOTH",
"363 398 LINE",
"392 362 LINE"
);
}
);
width = 708;
}
);
unicode = 0058;
},
{
color = 6;
glyphname = Y;
lastChange = "2019-03-12 16:36:17 +0000";
layers = (
{
anchors = (
{
name = bottom;
position = "{320, 0}";
},
{
name = top;
position = "{320, 700}";
},
{
name = topleft;
position = "{20, 700}";
}
);
layerId = "0E913661-75E6-4305-BF89-58B721FF741E";
paths = (
{
closed = 1;
nodes = (
"49 643 LINE",
"119 671 OFFCURVE",
"168 686 OFFCURVE",
"228 714 CURVE",
"242 690 LINE",
"185 648 OFFCURVE",
"179 631 OFFCURVE",
"206 583 CURVE SMOOTH",
"351 320 LINE",
"508 601 LINE SMOOTH",
"528 636 OFFCURVE",
"490 658 OFFCURVE",
"436 688 CURVE",
"450 715 LINE",
"508 695 OFFCURVE",
"565 676 OFFCURVE",
"623 656 CURVE",
"374 288 LINE",
"378 114 LINE SMOOTH",
"379 63 OFFCURVE",
"453 27 OFFCURVE",
"505 20 CURVE",
"505 -7 LINE",
"413 4 OFFCURVE",
"240 3 OFFCURVE",
"150 -7 CURVE",
"150 20 LINE",
"192 28 OFFCURVE",
"281 63 OFFCURVE",
"281 114 CURVE SMOOTH",
"281 275 LINE"
);
}
);
width = 640;
}
);
unicode = 0059;
},
{
color = 6;
glyphname = Z;
lastChange = "2019-03-12 16:36:17 +0000";
layers = (
{
anchors = (
{
name = bottom;
position = "{389, 0}";
},
{
name = top;
position = "{389, 700}";
}
);
layerId = "0E913661-75E6-4305-BF89-58B721FF741E";
paths = (
{
closed = 1;
nodes = (
"163 133 OFFCURVE",
"475 604 OFFCURVE",
"526 669 CURVE",
"533 656 LINE",
"316 653 LINE SMOOTH",
"194 651 OFFCURVE",
"159 631 OFFCURVE",
"95 539 CURVE",
"66 546 LINE",
"109 710 LINE",
"295 692 OFFCURVE",
"482 695 OFFCURVE",
"668 710 CURVE",
"680 689 LINE",
"601 624 OFFCURVE",
"343 252 OFFCURVE",
"186 34 CURVE",
"146 43 LINE",
"426 52 LINE SMOOTH",
"509 55 OFFCURVE",
"601 81 OFFCURVE",
"624 189 CURVE",
"658 186 LINE",
"635 -5 LINE",
"412 -3 OFFCURVE",
"248 -2 OFFCURVE",
"27 -6 CURVE",
"20 17 LINE"
);
}
);
width = 700;
}
);
unicode = 005A;
},
{
color = 4;
glyphname = a;
lastChange = "2019-04-24 17:09:03 +0000";
layers = (
{
anchors = (
{
name = bottom;
position = "{167, 0}";
},
{
name = ogonek;
position = "{304, 10}";
},
{
name = top;
position = "{167, 390}";
}
);
layerId = "0E913661-75E6-4305-BF89-58B721FF741E";
paths = (
{
closed = 1;
nodes = (
"121 192 OFFCURVE",
"201 198 CURVE",
"210 101 OFFCURVE",
"161 79 OFFCURVE",
"126 79 CURVE SMOOTH",
"104 79 OFFCURVE",
"75 96 OFFCURVE",
"75 130 CURVE SMOOTH",
"75 179 OFFCURVE"
);
},
{
closed = 1;
nodes = (
"200 210 LINE",
"239 240 LINE",
"189 236 OFFCURVE",
"95 219 OFFCURVE",
"77 205 CURVE",
"55 177 OFFCURVE",
"34 138 OFFCURVE",
"34 92 CURVE SMOOTH",
"34 25 OFFCURVE",
"64 -9 OFFCURVE",
"121 -9 CURVE",
"163 11 OFFCURVE",
"187 39 OFFCURVE",
"203 76 CURVE",
"221 -7 LINE",
"230 -11 LINE",
"337 29 LINE",
"328 60 LINE",
"306 50 OFFCURVE",
"285 50 OFFCURVE",
"285 93 CURVE SMOOTH",
"285 172 OFFCURVE",
"287 281 OFFCURVE",
"287 330 CURVE SMOOTH",
"287 349 OFFCURVE",
"212 400 OFFCURVE",
"186 400 CURVE SMOOTH",
"174 400 OFFCURVE",
"95 367 OFFCURVE",
"46 347 CURVE",
"57 313 LINE",
"91 329 OFFCURVE",
"112 338 OFFCURVE",
"133 338 CURVE SMOOTH",
"165 338 OFFCURVE",
"201 318 OFFCURVE",
"201 282 CURVE SMOOTH"
);
}
);
width = 347;
}
);
unicode = 0061;
},
{
color = 4;
glyphname = a_macr;
lastChange = "2019-04-21 16:19:30 +0000";
layers = (
{
anchors = (
{
name = _top;
position = "{167, 390}";
},
{
name = bottom;
position = "{168, 0}";
},
{
name = ogonek;
position = "{302, 10}";
},
{
name = top;
position = "{168, 390}";
}
);
components = (
{
name = a;
}
);
layerId = "0E913661-75E6-4305-BF89-58B721FF741E";
paths = (
{
closed = 1;
nodes = (
"75 564 OFFCURVE",
"67 537 OFFCURVE",
"58 511 CURVE",
"125 506 OFFCURVE",
"221 493 OFFCURVE",
"276 483 CURVE",
"297 533 LINE",
"165 549 OFFCURVE",
"112 566 OFFCURVE",
"99 591 CURVE",
"80 590 LINE"
);
}
);
width = 347;
}
);
unicode = 0101;
},
{
color = 4;
glyphname = b;
lastChange = "2019-01-16 15:14:29 +0000";
layers = (
{
anchors = (
{
name = bottom;
position = "{236, 0}";
},
{
name = top;
position = "{236, 700}";
}
);
layerId = "0E913661-75E6-4305-BF89-58B721FF741E";
paths = (
{
closed = 1;
nodes = (
"281 -9 OFFCURVE",
"456 78 OFFCURVE",
"456 228 CURVE SMOOTH",
"456 335 OFFCURVE",
"409 401 OFFCURVE",
"268 401 CURVE SMOOTH",
"233 401 OFFCURVE",
"110 365 OFFCURVE",
"33 343 CURVE",
"33 333 LINE",
"79 308 LINE",
"118 330 OFFCURVE",
"168 356 OFFCURVE",
"233 356 CURVE SMOOTH",
"325 356 OFFCURVE",
"381 284 OFFCURVE",
"381 202 CURVE SMOOTH",
"381 109 OFFCURVE",
"335 54 OFFCURVE",
"275 54 CURVE SMOOTH",
"204 54 OFFCURVE",
"158 81 OFFCURVE",
"156 138 CURVE SMOOTH",
"153 220 OFFCURVE",
"150 580 OFFCURVE",
"169 696 CURVE",
"149 711 LINE",
"104 678 OFFCURVE",
"61 652 OFFCURVE",
"20 636 CURVE",
"21 615 LINE",
"44 601 OFFCURVE",
"66 584 OFFCURVE",
"66 540 CURVE SMOOTH",
"66 523 OFFCURVE",
"75 132 OFFCURVE",
"69 0 CURVE",
"118 2 OFFCURVE",
"189 -9 OFFCURVE",
"250 -9 CURVE SMOOTH"
);
}
);
width = 481;
}
);
rightMetricsKey = o;
unicode = 0062;
},
{
color = 4;
glyphname = c;
lastChange = "2019-01-16 10:53:57 +0000";
layers = (
{
anchors = (
{
name = bottom;
position = "{161, 0}";
},
{
name = top;
position = "{161, 390}";
}
);
layerId = "0E913661-75E6-4305-BF89-58B721FF741E";
paths = (
{
closed = 1;
nodes = (
"75 338 LINE",
"55 309 OFFCURVE",
"35 266 OFFCURVE",
"35 191 CURVE SMOOTH",
"35 76 OFFCURVE",
"80 -8 OFFCURVE",
"180 -8 CURVE SMOOTH",
"227 -8 OFFCURVE",
"264 25 OFFCURVE",
"298 42 CURVE",
"293 65 LINE",
"191 36 OFFCURVE",
"110 83 OFFCURVE",
"110 205 CURVE SMOOTH",
"110 257 OFFCURVE",
"115 300 OFFCURVE",
"138 352 CURVE",
"117 329 LINE",
"168 334 OFFCURVE",
"224 327 OFFCURVE",
"264 306 CURVE",
"270 309 LINE",
"281 388 LINE",
"256 395 OFFCURVE",
"220 401 OFFCURVE",
"147 391 CURVE"
);
}
);
width = 298;
}
);
unicode = 0063;
},
{
color = 4;
glyphname = c_t;
lastChange = "2019-04-21 16:58:28 +0000";
layers = (
{
anchors = (
{
name = bottom;
position = "{151, 0}";
},
{
name = center;
position = "{418, 195}";
},
{
name = top;
position = "{151, 390}";
},
{
name = topright;
position = "{527, 390}";
}
);
layerId = "0E913661-75E6-4305-BF89-58B721FF741E";
paths = (
{
closed = 1;
nodes = (
"35 76 OFFCURVE",
"70 -8 OFFCURVE",
"170 -8 CURVE SMOOTH",
"217 -8 OFFCURVE",
"254 9 OFFCURVE",
"288 26 CURVE",
"283 49 LINE",
"181 20 OFFCURVE",
"110 83 OFFCURVE",
"110 205 CURVE SMOOTH",
"110 249 OFFCURVE",
"122 298 OFFCURVE",
"158 331 CURVE",
"213 334 OFFCURVE",
"310 331 OFFCURVE",
"372 323 CURVE",
"367 59 LINE SMOOTH",
"367 37 OFFCURVE",
"420 -9 OFFCURVE",
"470 -9 CURVE SMOOTH",
"496 -9 OFFCURVE",
"512 5 OFFCURVE",
"562 32 CURVE",
"558 50 LINE",
"456 50 OFFCURVE",
"456 97 OFFCURVE",
"455 225 CURVE SMOOTH",
"455 263 OFFCURVE",
"456 291 OFFCURVE",
"459 327 CURVE",
"488 328 OFFCURVE",
"527 330 OFFCURVE",
"556 327 CURVE",
"557 390 LINE",
"464 390 LINE",
"472 451 OFFCURVE",
"483 503 OFFCURVE",
"496 535 CURVE",
"474 545 LINE",
"453 518 OFFCURVE",
"397 475 OFFCURVE",
"351 465 CURVE",
"348 444 LINE",
"365 435 OFFCURVE",
"371 414 OFFCURVE",
"373 390 CURVE",
"340 389 OFFCURVE",
"225 391 OFFCURVE",
"177 395 CURVE",
"75 338 LINE",
"55 309 OFFCURVE",
"35 266 OFFCURVE",
"35 191 CURVE SMOOTH"
);
}
);
width = 582;
}
);
leftMetricsKey = c;
rightMetricsKey = t;
},
{
color = 4;
glyphname = d;
lastChange = "2019-01-16 11:28:22 +0000";
layers = (
{
anchors = (
{
name = bottom;
position = "{226, 0}";
},
{
name = center;
position = "{226, 195}";
},
{
name = top;
position = "{226, 700}";
},
{
name = topright;
position = "{444, 390}";
}
);
layerId = "0E913661-75E6-4305-BF89-58B721FF741E";
paths = (
{
closed = 1;
nodes = (
"245 663 LINE",
"290 651 OFFCURVE",
"317 651 OFFCURVE",
"317 582 CURVE SMOOTH",
"318 134 LINE",
"324 86 OFFCURVE",
"329 48 OFFCURVE",
"335 1 CURVE",
"350 -10 LINE",
"376 3 OFFCURVE",
"406 12 OFFCURVE",
"444 35 CURVE",
"444 55 LINE",
"385 144 OFFCURVE",
"397 529 OFFCURVE",
"426 699 CURVE",
"405 711 LINE",
"363 701 OFFCURVE",
"296 691 OFFCURVE",
"245 691 CURVE"
);
},
{
closed = 1;
nodes = (
"335 161 LINE",
"292 102 OFFCURVE",
"250 84 OFFCURVE",
"198 84 CURVE SMOOTH",
"122 84 OFFCURVE",
"76 125 OFFCURVE",
"76 210 CURVE SMOOTH",
"76 284 OFFCURVE",
"128 334 OFFCURVE",
"215 334 CURVE SMOOTH",
"279 334 OFFCURVE",
"320 302 OFFCURVE",
"343 278 CURVE",
"350 382 LINE",
"323 387 OFFCURVE",
"252 399 OFFCURVE",
"240 399 CURVE SMOOTH",
"123 399 OFFCURVE",
"25 312 OFFCURVE",
"25 179 CURVE SMOOTH",
"25 46 OFFCURVE",
"109 -10 OFFCURVE",
"197 -10 CURVE",
"243 21 OFFCURVE",
"280 55 OFFCURVE",
"347 125 CURVE"
);
}
);
width = 464;
}
);
leftMetricsKey = o;
unicode = 0064;
},
{
color = 4;
glyphname = d.ss01;
lastChange = "2019-04-24 17:09:03 +0000";
layers = (
{
anchors = (
{
name = bottom;
position = "{196, -3}";
},
{
name = center;
position = "{193, 195}";
},
{
name = top;
position = "{193, 700}";
},
{
name = topright;
position = "{359, 390}";
}
);
layerId = "0E913661-75E6-4305-BF89-58B721FF741E";
paths = (
{
closed = 1;
nodes = (
"97 588 OFFCURVE",
"25 531 OFFCURVE",
"25 522 CURVE SMOOTH",
"25 468 OFFCURVE",
"155 412 OFFCURVE",
"223 358 CURVE SMOOTH",
"267 323 OFFCURVE",
"299 276 OFFCURVE",
"299 213 CURVE SMOOTH",
"299 146 OFFCURVE",
"271 101 OFFCURVE",
"243 70 CURVE",
"167 95 OFFCURVE",
"124 163 OFFCURVE",
"124 227 CURVE SMOOTH",
"124 299 OFFCURVE",
"151 348 OFFCURVE",
"203 381 CURVE",
"185 407 LINE",
"48 298 LINE",
"34 270 OFFCURVE",
"39 170 OFFCURVE",
"57 111 CURVE SMOOTH",
"70 69 OFFCURVE",
"129 7 OFFCURVE",
"207 -8 CURVE",
"237 15 OFFCURVE",
"328 76 OFFCURVE",
"365 106 CURVE",
"385 139 OFFCURVE",
"394 278 OFFCURVE",
"377 333 CURVE",
"359 364 OFFCURVE",
"314 405 OFFCURVE",
"269 435 CURVE SMOOTH",
"204 478 OFFCURVE",
"122 534 OFFCURVE",
"122 551 CURVE SMOOTH",
"122 564 OFFCURVE",
"136 583 OFFCURVE",
"161 605 CURVE",
"144 624 LINE"
);
}
);
width = 411;
}
);
leftMetricsKey = o;
rightMetricsKey = o;
},
{
color = 4;
glyphname = e;
lastChange = "2019-04-24 17:08:46 +0000";
layers = (
{
anchors = (
{
name = bottom;
position = "{155, 0}";
},
{
name = ogonek;
position = "{291, 10}";
},
{
name = top;
position = "{155, 390}";
}
);
layerId = "0E913661-75E6-4305-BF89-58B721FF741E";
paths = (
{
closed = 1;
nodes = (
"140 57 OFFCURVE",
"225 57 CURVE SMOOTH",
"254 57 OFFCURVE",
"266 63 OFFCURVE",
"283 68 CURVE",
"291 41 LINE",
"256 24 OFFCURVE",
"250 10 OFFCURVE",
"214 -10 CURVE",
"101 -10 OFFCURVE",
"25 60 OFFCURVE",
"25 169 CURVE SMOOTH",
"25 226 OFFCURVE",
"30 294 OFFCURVE",
"40 331 CURVE",
"176 403 LINE",
"217 375 OFFCURVE",
"259 312 OFFCURVE",
"296 271 CURVE",
"292 254 LINE",
"230 213 OFFCURVE",
"176 188 OFFCURVE",
"103 136 CURVE",
"99 170 LINE",
"146 198 OFFCURVE",
"182 215 OFFCURVE",
"212 240 CURVE",
"212 255 OFFCURVE",
"177 302 OFFCURVE",
"125 346 CURVE",
"133 346 LINE",
"110 328 OFFCURVE",
"100 271 OFFCURVE",
"100 213 CURVE SMOOTH",
"100 120 OFFCURVE"
);
}
);
width = 301;
}
);
unicode = 0065;
},
{
color = 4;
glyphname = e_macr;
lastChange = "2019-04-21 16:20:08 +0000";
layers = (
{
anchors = (
{
name = _top;
position = "{155, 390}";
},
{
name = bottom;
position = "{151, 0}";
},
{
name = ogonek;
position = "{271, 10}";
},
{
name = top;
position = "{151, 390}";
}
);
components = (
{
name = e;
}
);
layerId = "0E913661-75E6-4305-BF89-58B721FF741E";
paths = (
{
closed = 1;
nodes = (
"49 462 LINE",
"64 485 OFFCURVE",
"195 485 OFFCURVE",
"242 481 CURVE",
"279 559 LINE",
"253 563 LINE",
"229 542 OFFCURVE",
"118 541 OFFCURVE",
"64 539 CURVE",
"21 467 LINE"
);
}
);
width = 301;
}
);
unicode = 0113;
},
{
color = 4;
glyphname = f;
lastChange = "2019-04-21 16:07:18 +0000";
layers = (
{
anchors = (
{
name = bottom;
position = "{109, 0}";
},
{
name = top;
position = "{109, 700}";
}
);
layerId = "0E913661-75E6-4305-BF89-58B721FF741E";
paths = (
{
closed = 1;
nodes = (
"153 109 LINE SMOOTH",
"153 38 OFFCURVE",
"152 38 OFFCURVE",
"222 21 CURVE",
"222 -6 LINE",
"145 0 OFFCURVE",
"73 1 OFFCURVE",
"5 -6 CURVE",
"5 21 LINE",
"67 37 OFFCURVE",
"68 37 OFFCURVE",
"68 108 CURVE SMOOTH",
"67 618 LINE",
"108 654 OFFCURVE",
"131 662 OFFCURVE",
"174 701 CURVE",
"202 699 OFFCURVE",
"241 699 OFFCURVE",
"276 695 CURVE",
"272 608 LINE",
"232 611 OFFCURVE",
"175 617 OFFCURVE",
"152 617 CURVE"
);
},
{
closed = 1;
nodes = (
"16 390 LINE",
"262 390 LINE",
"262 346 LINE",
"76 346 LINE",
"16 368 LINE"
);
}
);
width = 246;
}
);
unicode = 0066;
},
{
color = 4;
glyphname = f_l;
lastChange = "2019-01-11 09:13:22 +0000";
layers = (
{
anchors = (
{
name = bottom_1;
position = "{129, 0}";
},
{
name = bottom_2;
position = "{386, 0}";
},
{
name = caret_1;
position = "{257, 0}";
},
{
name = top_1;
position = "{129, 700}";
},
{
name = top_2;
position = "{386, 700}";
}
);
layerId = "0E913661-75E6-4305-BF89-58B721FF741E";
paths = (
{
closed = 1;
nodes = (
"351 586 OFFCURVE",
"327 603 OFFCURVE",
"304 617 CURVE",
"303 636 LINE",
"344 652 OFFCURVE",
"395 678 OFFCURVE",
"437 711 CURVE",
"457 696 LINE",
"434 606 OFFCURVE",
"440 303 OFFCURVE",
"440 107 CURVE SMOOTH",
"440 36 OFFCURVE",
"439 36 OFFCURVE",
"489 19 CURVE",
"489 -6 LINE",
"432 0 OFFCURVE",
"356 1 OFFCURVE",
"315 -6 CURVE",
"315 19 LINE",
"360 35 OFFCURVE",
"357 35 OFFCURVE",
"356 97 CURVE SMOOTH",
"351 542 LINE SMOOTH"
);
},
{
closed = 1;
nodes = (
"354 363 LINE",
"346 376 OFFCURVE",
"334 385 OFFCURVE",
"323 391 CURVE",
"322 402 LINE",
"353 421 LINE"
);
},
{
closed = 1;
nodes = (
"153 109 LINE SMOOTH",
"153 38 OFFCURVE",
"152 38 OFFCURVE",
"222 21 CURVE",
"222 -6 LINE",
"145 0 OFFCURVE",
"73 1 OFFCURVE",
"5 -6 CURVE",
"5 21 LINE",
"67 37 OFFCURVE",
"69 37 OFFCURVE",
"68 108 CURVE SMOOTH",
"67 282 OFFCURVE",
"71 580 OFFCURVE",
"64 631 CURVE",
"74 639 LINE",
"112 634 OFFCURVE",
"231 639 OFFCURVE",
"271 657 CURVE",
"282 653 LINE",
"272 581 LINE",
"151 592 LINE"
);
},
{
closed = 1;
nodes = (
"16 390 LINE",
"262 390 LINE",
"262 346 LINE",
"76 346 LINE",
"16 368 LINE"
);
}
);
width = 514;
}
);
leftMetricsKey = f;
rightMetricsKey = l;
},
{
color = 4;
glyphname = g;
lastChange = "2019-04-24 17:09:03 +0000";
layers = (
{
anchors = (
{
name = bottom;
position = "{243, -200}";
},
{
name = top;
position = "{223, 390}";
}
);
layerId = "0E913661-75E6-4305-BF89-58B721FF741E";
paths = (
{
closed = 1;
nodes = (
"205 393 LINE",
"265 393 OFFCURVE",
"295 393 OFFCURVE",
"385 394 CURVE",
"385 340 LINE",
"244 342 LINE"
);
},
{
closed = 1;
nodes = (
"129 314 OFFCURVE",
"81 275 OFFCURVE",
"81 226 CURVE SMOOTH",
"81 178 OFFCURVE",
"126 153 OFFCURVE",
"169 153 CURVE SMOOTH",
"235 153 OFFCURVE",
"291 190 OFFCURVE",
"291 239 CURVE SMOOTH",
"291 281 OFFCURVE",
"259 314 OFFCURVE",
"196 314 CURVE SMOOTH"
);
},
{
closed = 1;
nodes = (
"193 122 OFFCURVE",
"155 90 OFFCURVE",
"145 76 CURVE SMOOTH",
"155 59 OFFCURVE",
"189 50 OFFCURVE",
"253 41 CURVE SMOOTH",
"345 28 OFFCURVE",
"405 11 OFFCURVE",
"405 -78 CURVE SMOOTH",
"405 -164 OFFCURVE",
"312 -212 OFFCURVE",
"216 -212 CURVE SMOOTH",
"111 -212 OFFCURVE",
"15 -175 OFFCURVE",
"15 -101 CURVE SMOOTH",
"15 -17 OFFCURVE",
"95 -4 OFFCURVE",
"186 23 CURVE",
"237 0 LINE",
"136 -9 OFFCURVE",
"109 -38 OFFCURVE",
"109 -73 CURVE SMOOTH",
"109 -120 OFFCURVE",
"162 -139 OFFCURVE",
"224 -139 CURVE SMOOTH",
"292 -139 OFFCURVE",
"372 -126 OFFCURVE",
"372 -67 CURVE SMOOTH",
"372 -20 OFFCURVE",
"302 -4 OFFCURVE",
"216 -2 CURVE SMOOTH",
"162 -1 OFFCURVE",
"107 42 OFFCURVE",
"80 65 CURVE",
"80 85 LINE",
"105 99 OFFCURVE",
"142 113 OFFCURVE",
"165 138 CURVE",
"236 126 LINE"
);
},
{
closed = 1;
nodes = (
"18 344 OFFCURVE",
"97 389 OFFCURVE",
"208 393 CURVE SMOOTH",
"261 395 OFFCURVE",
"357 334 OFFCURVE",
"357 254 CURVE SMOOTH",
"357 176 OFFCURVE",
"272 120 OFFCURVE",
"184 120 CURVE SMOOTH",
"99 120 OFFCURVE",
"18 151 OFFCURVE",
"18 245 CURVE SMOOTH"
);
}
);
width = 420;
}
);
unicode = 0067;
},
{
color = 4;
glyphname = g.ss01;
lastChange = "2019-04-24 17:09:03 +0000";
layers = (
{
anchors = (
{
name = bottom;
position = "{222, -200}";
},
{
name = top;
position = "{222, 390}";
}
);
layerId = "0E913661-75E6-4305-BF89-58B721FF741E";
paths = (
{
closed = 1;
nodes = (
"9 -91 OFFCURVE",
"38 -76 OFFCURVE",
"52 -76 CURVE",
"103 -83 OFFCURVE",
"240 -96 OFFCURVE",
"341 -130 CURVE",
"300 -134 LINE",
"334 -123 OFFCURVE",
"350 -86 OFFCURVE",
"350 -69 CURVE SMOOTH",
"350 -26 OFFCURVE",
"317 26 OFFCURVE",
"261 45 CURVE",
"237 45 OFFCURVE",
"162 12 OFFCURVE",
"138 4 CURVE",
"62 14 OFFCURVE",
"16 64 OFFCURVE",
"16 173 CURVE SMOOTH",
"16 237 OFFCURVE",
"33 288 OFFCURVE",
"52 311 CURVE",
"111 337 OFFCURVE",
"153 376 OFFCURVE",
"187 399 CURVE",
"201 391 OFFCURVE",
"271 356 OFFCURVE",
"309 328 CURVE",
"267 335 LINE",
"297 384 LINE",
"367 369 OFFCURVE",
"376 369 OFFCURVE",
"416 394 CURVE",
"434 386 LINE",
"409 349 OFFCURVE",
"400 323 OFFCURVE",
"391 296 CURVE",
"366 302 OFFCURVE",
"325 299 OFFCURVE",
"305 297 CURVE",
"321 324 LINE",
"323 281 OFFCURVE",
"342 203 OFFCURVE",
"342 157 CURVE",
"332 128 OFFCURVE",
"315 94 OFFCURVE",
"274 64 CURVE",
"261 106 LINE",
"388 73 OFFCURVE",
"436 11 OFFCURVE",
"419 -94 CURVE",
"375 -134 OFFCURVE",
"330 -168 OFFCURVE",
"281 -200 CURVE",
"155 -147 OFFCURVE",
"77 -146 OFFCURVE",
"34 -160 CURVE",
"-1 -98 LINE"
);
},
{
closed = 1;
nodes = (
"91 94 OFFCURVE",
"141 43 OFFCURVE",
"240 70 CURVE",
"273 158 OFFCURVE",
"254 267 OFFCURVE",
"233 291 CURVE",
"205 309 OFFCURVE",
"168 318 OFFCURVE",
"131 313 CURVE",
"109 297 OFFCURVE",
"91 264 OFFCURVE",
"91 200 CURVE SMOOTH"
);
}
);
width = 443;
}
);
},
{
color = 4;
glyphname = h;
lastChange = "2019-04-24 17:08:46 +0000";
layers = (
{
anchors = (
{
name = bottom;
position = "{236, 0}";
},
{
name = center;
position = "{236, 350}";
},
{
name = top;
position = "{236, 700}";
}
);
layerId = "0E913661-75E6-4305-BF89-58B721FF741E";
paths = (
{
closed = 1;
nodes = (
"145 345 LINE",
"186 365 OFFCURVE",
"246 402 OFFCURVE",
"274 402 CURVE SMOOTH",
"400 402 OFFCURVE",
"458 329 OFFCURVE",
"458 224 CURVE SMOOTH",
"458 127 OFFCURVE",
"389 67 OFFCURVE",
"369 35 CURVE",
"396 29 OFFCURVE",
"414 27 OFFCURVE",
"431 24 CURVE",
"431 24 OFFCURVE",
"430 -7 OFFCURVE",
"430 -7 CURVE",
"393 -2 OFFCURVE",
"330 1 OFFCURVE",
"272 -5 CURVE",
"273 23 LINE",
"342 51 OFFCURVE",
"398 93 OFFCURVE",
"398 185 CURVE SMOOTH",
"398 291 OFFCURVE",
"312 337 OFFCURVE",
"243 337 CURVE SMOOTH",
"207 337 OFFCURVE",
"174 329 OFFCURVE",
"149 312 CURVE"
);
},
{
closed = 1;
nodes = (
"57 634 OFFCURVE",
"59 618 OFFCURVE",
"29 608 CURVE",
"20 636 LINE",
"61 658 OFFCURVE",
"120 686 OFFCURVE",
"172 714 CURVE",
"186 690 LINE",
"156 664 OFFCURVE",
"157 664 OFFCURVE",
"156 621 CURVE SMOOTH",
"153 488 OFFCURVE",
"151 246 OFFCURVE",
"155 107 CURVE SMOOTH",
"157 36 OFFCURVE",
"154 36 OFFCURVE",
"204 19 CURVE",
"204 -6 LINE",
"147 0 OFFCURVE",
"71 1 OFFCURVE",
"30 -6 CURVE",
"30 19 LINE",
"75 35 OFFCURVE",
"70 35 OFFCURVE",
"71 97 CURVE SMOOTH",
"73 261 OFFCURVE",
"70 426 OFFCURVE",
"60 590 CURVE SMOOTH"
);
}
);
width = 483;
}
);
leftMetricsKey = b;
rightMetricsKey = o;
unicode = 0068;
},
{
color = 4;
glyphname = h.ss01;
lastChange = "2019-04-21 16:58:28 +0000";
layers = (
{
anchors = (
{
name = bottom;
position = "{216, 0}";
},
{
name = center;
position = "{216, 350}";
},
{
name = top;
position = "{216, 700}";
}
);
layerId = "0E913661-75E6-4305-BF89-58B721FF741E";
paths = (
{
closed = 1;
nodes = (
"167 352 OFFCURVE",
"258 403 OFFCURVE",
"293 419 CURVE",
"368 375 OFFCURVE",
"416 321 OFFCURVE",
"413 207 CURVE SMOOTH",
"410 85 OFFCURVE",
"246 -107 OFFCURVE",
"221 -200 CURVE",
"199 -201 LINE",
"199 -133 LINE",
"265 -40 OFFCURVE",
"336 42 OFFCURVE",
"336 174 CURVE SMOOTH",
"336 274 OFFCURVE",
"287 341 OFFCURVE",
"233 341 CURVE SMOOTH",
"192 341 OFFCURVE",
"164 312 OFFCURVE",
"146 281 CURVE",
"129 335 LINE"
);
},
{
closed = 1;
nodes = (
"63 626 OFFCURVE",
"63 626 OFFCURVE",
"29 613 CURVE",
"20 636 LINE",
"61 660 OFFCURVE",
"118 689 OFFCURVE",
"160 714 CURVE",
"175 695 LINE",
"155 672 OFFCURVE",
"155 662 OFFCURVE",
"153 629 CURVE SMOOTH",
"145 503 OFFCURVE",
"154 238 OFFCURVE",
"154 107 CURVE SMOOTH",
"154 36 OFFCURVE",
"153 36 OFFCURVE",
"203 19 CURVE",
"203 -6 LINE",
"146 0 OFFCURVE",
"70 1 OFFCURVE",
"29 -6 CURVE",
"29 19 LINE",
"74 35 OFFCURVE",
"70 35 OFFCURVE",
"70 97 CURVE SMOOTH",
"69 245 OFFCURVE",
"68 440 OFFCURVE",
"64 588 CURVE SMOOTH"
);
},
{
closed = 1;
nodes = (
"72 310 LINE",
"64 323 OFFCURVE",
"52 332 OFFCURVE",
"41 338 CURVE",
"40 349 LINE",
"71 368 LINE"
);
}
);
width = 438;
}
);
leftMetricsKey = h;
rightMetricsKey = h;
},
{
color = 4;
glyphname = i;
lastChange = "2019-01-11 09:13:22 +0000";
layers = (
{
anchors = (
{
name = bottom;
position = "{101, 0}";
}
);
layerId = "0E913661-75E6-4305-BF89-58B721FF741E";
paths = (
{
closed = 1;
nodes = (
"132 526 LINE",
"183 682 LINE",
"126 703 LINE",
"118 699 LINE",
"97 546 LINE"
);
},
{
closed = 1;
nodes = (
"58 338 OFFCURVE",
"34 335 OFFCURVE",
"11 349 CURVE",
"10 368 LINE",
"51 376 OFFCURVE",
"91 386 OFFCURVE",
"133 419 CURVE",
"153 408 LINE",
"136 297 OFFCURVE",
"144 236 OFFCURVE",
"142 106 CURVE SMOOTH",
"141 35 OFFCURVE",
"141 35 OFFCURVE",
"191 18 CURVE",
"191 -6 LINE",
"134 0 OFFCURVE",
"58 1 OFFCURVE",
"17 -6 CURVE",
"17 18 LINE",
"62 34 OFFCURVE",
"58 34 OFFCURVE",
"58 96 CURVE SMOOTH",
"58 294 LINE SMOOTH"
);
}
);
width = 201;
}
);
unicode = 0069;
},
{
color = 4;
glyphname = idotless;
lastChange = "2019-01-18 12:18:33 +0000";
layers = (
{
layerId = "0E913661-75E6-4305-BF89-58B721FF741E";
paths = (
{
closed = 1;
nodes = (
"58 338 OFFCURVE",
"34 335 OFFCURVE",
"11 349 CURVE",
"10 368 LINE",
"51 376 OFFCURVE",
"91 386 OFFCURVE",
"133 419 CURVE",
"153 408 LINE",
"136 297 OFFCURVE",
"144 236 OFFCURVE",
"142 106 CURVE SMOOTH",
"141 35 OFFCURVE",
"141 35 OFFCURVE",
"191 18 CURVE",
"191 -6 LINE",
"134 0 OFFCURVE",
"58 1 OFFCURVE",
"17 -6 CURVE",
"17 18 LINE",
"62 34 OFFCURVE",
"58 34 OFFCURVE",
"58 96 CURVE SMOOTH",
"58 294 LINE SMOOTH"
);
}
);
width = 201;
}
);
unicode = 0131;
},
{
color = 4;
glyphname = i_macr;
lastChange = "2019-04-21 16:58:28 +0000";
layers = (
{
anchors = (
{
name = _top;
position = "{108.889, 420}";
},
{
name = bottom;
position = "{120, 0}";
},
{
name = top;
position = "{109.671, 720}";
}
);
layerId = "0E913661-75E6-4305-BF89-58B721FF741E";
paths = (
{
closed = 1;
nodes = (
"72 338 OFFCURVE",
"48 335 OFFCURVE",
"25 349 CURVE",
"24 368 LINE",
"65 376 OFFCURVE",
"105 386 OFFCURVE",
"147 419 CURVE",
"167 408 LINE",
"150 297 OFFCURVE",
"158 236 OFFCURVE",
"156 106 CURVE SMOOTH",
"155 35 OFFCURVE",
"155 35 OFFCURVE",
"205 18 CURVE",
"205 -6 LINE",
"148 0 OFFCURVE",
"72 1 OFFCURVE",
"31 -6 CURVE",
"31 18 LINE",
"76 34 OFFCURVE",
"72 34 OFFCURVE",
"72 96 CURVE SMOOTH",
"72 294 LINE SMOOTH"
);
},
{
closed = 1;
nodes = (
"31.515 515 LINE",
"44 534 OFFCURVE",
"137 527 OFFCURVE",
"173 527 CURVE",
"213 594 LINE",
"193 599 LINE",
"164 589 OFFCURVE",
"101 592 OFFCURVE",
"59 592 CURVE",
"9.631 521 LINE"
);
}
);
width = 223;
}
);
leftMetricsKey = i;
rightMetricsKey = i;
unicode = 012B;
},
{
color = 6;
glyphname = j;
lastChange = "2019-03-12 16:36:17 +0000";
layers = (
{
layerId = "0E913661-75E6-4305-BF89-58B721FF741E";
paths = (
{
closed = 1;
nodes = (
"132 526 LINE",
"183 682 LINE",
"126 703 LINE",
"118 699 LINE",
"97 546 LINE"
);
},
{
closed = 1;
nodes = (
"58 338 OFFCURVE",
"34 335 OFFCURVE",
"11 349 CURVE",
"10 368 LINE",
"51 376 OFFCURVE",
"91 386 OFFCURVE",
"133 419 CURVE",
"153 408 LINE",
"136 297 OFFCURVE",
"144 156 OFFCURVE",
"142 26 CURVE",
"100 -35 OFFCURVE",
"77 -87 OFFCURVE",
"47 -146 CURVE",
"17 -135 LINE",
"47 -55 OFFCURVE",
"58 10 OFFCURVE",
"58 86 CURVE SMOOTH",
"58 294 LINE SMOOTH"
);
}
);
width = 233;
}
);
unicode = 006A;
},
{
color = 4;
glyphname = k;
lastChange = "2019-04-21 16:23:07 +0000";
layers = (
{
anchors = (
{
name = bottom;
position = "{167, 0}";
},
{
name = top;
position = "{167, 700}";
}
);
layerId = "0E913661-75E6-4305-BF89-58B721FF741E";
paths = (
{
closed = 1;
nodes = (
"171 271 OFFCURVE",
"231 324 OFFCURVE",
"280 392 CURVE",
"288 391 LINE",
"313 306 LINE",
"313 297 LINE",
"245 264 OFFCURVE",
"197 230 OFFCURVE",
"129 187 CURVE",
"122 219 LINE"
);
},
{
closed = 1;
nodes = (
"329 86 LINE",
"313 -2 LINE",
"301 -6 LINE",
"220 77 OFFCURVE",
"168 128 OFFCURVE",
"107 191 CURVE",
"105 228 LINE",
"183 168 OFFCURVE",
"253 124 OFFCURVE",
"327 94 CURVE"
);
},
{
closed = 1;
nodes = (
"55 608 OFFCURVE",
"51 622 OFFCURVE",
"8 629 CURVE",
"7 652 LINE",
"48 668 OFFCURVE",
"101 688 OFFCURVE",
"143 711 CURVE",
"157 699 LINE",
"134 609 OFFCURVE",
"138 303 OFFCURVE",
"138 107 CURVE SMOOTH",
"138 36 OFFCURVE",
"137 36 OFFCURVE",
"169 19 CURVE",
"169 -6 LINE",
"130 0 OFFCURVE",
"59 1 OFFCURVE",
"18 -6 CURVE",
"18 19 LINE",
"63 35 OFFCURVE",
"60 35 OFFCURVE",
"59 97 CURVE SMOOTH",
"55 564 LINE SMOOTH"
);
}
);
width = 333;
}
);
unicode = 006B;
},
{
color = 4;
glyphname = l;
lastChange = "2019-04-21 16:22:03 +0000";
layers = (
{
anchors = (
{
name = bottom;
position = "{118, 0}";
},
{
name = center;
position = "{118, 350}";
},
{
name = top;
position = "{118, 700}";
},
{
name = topright;
position = "{216, 700}";
}
);
layerId = "0E913661-75E6-4305-BF89-58B721FF741E";
paths = (
{
closed = 1;
nodes = (
"78 630 OFFCURVE",
"75 631 OFFCURVE",
"32 628 CURVE",
"30 653 LINE",
"71 669 OFFCURVE",
"117 688 OFFCURVE",
"159 711 CURVE",
"179 696 LINE",
"149 659 OFFCURVE",
"162 303 OFFCURVE",
"162 107 CURVE SMOOTH",
"162 36 OFFCURVE",
"161 36 OFFCURVE",
"211 19 CURVE",
"211 -6 LINE",
"154 0 OFFCURVE",
"78 1 OFFCURVE",
"37 -6 CURVE",
"37 19 LINE",
"82 35 OFFCURVE",
"78 35 OFFCURVE",
"78 97 CURVE SMOOTH",
"78 579 LINE SMOOTH"
);
},
{
closed = 1;
nodes = (
"81 353 LINE",
"63 367 OFFCURVE",
"50 365 OFFCURVE",
"39 371 CURVE",
"38 382 LINE",
"80 401 LINE"
);
}
);
width = 236;
}
);
unicode = 006C;
},
{
color = 4;
glyphname = m;
lastChange = "2019-03-28 13:56:27 +0000";
layers = (
{
anchors = (
{
name = bottom;
position = "{354, 0}";
},
{
name = top;
position = "{354, 390}";
}
);
layerId = "0E913661-75E6-4305-BF89-58B721FF741E";
paths = (
{
closed = 1;
nodes = (
"177 366 OFFCURVE",
"217 399 OFFCURVE",
"277 399 CURVE SMOOTH",
"360 399 OFFCURVE",
"404 330 OFFCURVE",
"400 308 CURVE SMOOTH",
"390 258 OFFCURVE",
"396 159 OFFCURVE",
"399 87 CURVE SMOOTH",
"401 38 OFFCURVE",
"404 35 OFFCURVE",
"445 20 CURVE",
"445 -6 LINE",
"370 1 OFFCURVE",
"334 1 OFFCURVE",
"269 -6 CURVE",
"269 20 LINE",
"310 38 OFFCURVE",
"310 37 OFFCURVE",
"311 87 CURVE SMOOTH",
"315 276 LINE SMOOTH",
"316 323 OFFCURVE",
"275 342 OFFCURVE",
"237 342 CURVE SMOOTH",
"187 342 OFFCURVE",
"156 318 OFFCURVE",
"134 299 CURVE",
"137 334 LINE"
);
},
{
closed = 1;
nodes = (
"66 326 OFFCURVE",
"42 332 OFFCURVE",
"19 346 CURVE",
"18 368 LINE",
"58 378 OFFCURVE",
"101 385 OFFCURVE",
"144 408 CURVE",
"164 397 LINE",
"147 326 OFFCURVE",
"151 280 OFFCURVE",
"152 110 CURVE SMOOTH",
"152 39 OFFCURVE",
"151 39 OFFCURVE",
"201 22 CURVE",
"201 -6 LINE",
"144 0 OFFCURVE",
"66 1 OFFCURVE",
"25 -6 CURVE",
"25 22 LINE",
"70 38 OFFCURVE",
"66 38 OFFCURVE",
"66 100 CURVE SMOOTH",
"66 272 LINE SMOOTH"
);
},
{
closed = 1;
nodes = (
"423 367 OFFCURVE",
"463 399 OFFCURVE",
"523 399 CURVE SMOOTH",
"606 399 OFFCURVE",
"650 330 OFFCURVE",
"646 308 CURVE SMOOTH",
"637 258 OFFCURVE",
"642 159 OFFCURVE",
"645 87 CURVE SMOOTH",
"647 38 OFFCURVE",
"650 35 OFFCURVE",
"691 20 CURVE",
"691 -6 LINE",
"616 1 OFFCURVE",
"580 1 OFFCURVE",
"515 -6 CURVE",
"515 20 LINE",
"556 38 OFFCURVE",
"556 37 OFFCURVE",
"557 87 CURVE SMOOTH",
"561 276 LINE SMOOTH",
"562 323 OFFCURVE",
"521 342 OFFCURVE",
"483 342 CURVE SMOOTH",
"433 342 OFFCURVE",
"402 308 OFFCURVE",
"380 289 CURVE",
"383 335 LINE"
);
}
);
width = 708;
}
);
unicode = 006D;
},
{
color = 4;
glyphname = n;
lastChange = "2019-04-21 16:23:17 +0000";
layers = (
{
anchors = (
{
name = bottom;
position = "{229, 0}";
},
{
name = top;
position = "{229, 390}";
}
);
layerId = "0E913661-75E6-4305-BF89-58B721FF741E";
paths = (
{
closed = 1;
nodes = (
"204 372 OFFCURVE",
"238 399 OFFCURVE",
"298 399 CURVE SMOOTH",
"361 399 OFFCURVE",
"403 346 OFFCURVE",
"399 324 CURVE SMOOTH",
"391 276 OFFCURVE",
"397 159 OFFCURVE",
"400 87 CURVE SMOOTH",
"402 38 OFFCURVE",
"405 35 OFFCURVE",
"446 20 CURVE",
"446 -6 LINE",
"371 1 OFFCURVE",
"335 1 OFFCURVE",
"270 -6 CURVE",
"270 20 LINE",
"311 38 OFFCURVE",
"311 37 OFFCURVE",
"312 87 CURVE SMOOTH",
"316 249 LINE SMOOTH",
"318 316 OFFCURVE",
"280 333 OFFCURVE",
"232 333 CURVE SMOOTH",
"202 333 OFFCURVE",
"157 318 OFFCURVE",
"135 299 CURVE",
"138 336 LINE"
);
},
{
closed = 1;
nodes = (
"58 326 OFFCURVE",
"34 332 OFFCURVE",
"11 346 CURVE",
"10 368 LINE",
"50 378 OFFCURVE",
"92 385 OFFCURVE",
"135 408 CURVE",
"155 397 LINE",
"138 326 OFFCURVE",
"142 280 OFFCURVE",
"143 110 CURVE SMOOTH",
"143 39 OFFCURVE",
"142 39 OFFCURVE",
"192 22 CURVE",
"192 -6 LINE",
"135 0 OFFCURVE",
"58 1 OFFCURVE",
"17 -6 CURVE",
"17 22 LINE",
"62 38 OFFCURVE",
"58 38 OFFCURVE",
"58 100 CURVE SMOOTH",
"58 272 LINE SMOOTH"
);
}
);
width = 456;
}
);
unicode = 006E;
},
{
color = 4;
glyphname = o;
lastChange = "2019-01-18 11:42:37 +0000";
layers = (
{
anchors = (
{
name = bottom;
position = "{221, 0}";
},
{
name = center;
position = "{221, 195}";
},
{
name = ogonek;
position = "{394, 10}";
},
{
name = top;
position = "{319, 390}";
},
{
name = topright;
position = "{417, 390}";
}
);
layerId = "0E913661-75E6-4305-BF89-58B721FF741E";
paths = (
{
closed = 1;
nodes = (
"25 57 OFFCURVE",
"134 -10 OFFCURVE",
"232 -10 CURVE SMOOTH",
"329 -10 OFFCURVE",
"420 88 OFFCURVE",
"420 198 CURVE SMOOTH",
"420 333 OFFCURVE",
"323 400 OFFCURVE",
"223 400 CURVE SMOOTH",
"116 400 OFFCURVE",
"25 311 OFFCURVE",
"25 192 CURVE SMOOTH"
);
},
{
closed = 1;
nodes = (
"114 293 OFFCURVE",
"146 364 OFFCURVE",
"215 364 CURVE SMOOTH",
"292 364 OFFCURVE",
"331 295 OFFCURVE",
"331 182 CURVE SMOOTH",
"331 97 OFFCURVE",
"309 26 OFFCURVE",
"230 26 CURVE SMOOTH",
"153 26 OFFCURVE",
"114 115 OFFCURVE",
"114 208 CURVE SMOOTH"
);
}
);
width = 445;
}
);
unicode = 006F;
},
{
color = 4;
glyphname = o_macr;
lastChange = "2019-04-21 16:25:18 +0000";
layers = (
{
anchors = (
{
name = _top;
position = "{232, 390}";
},
{
name = top;
position = "{233, 690}";
}
);
components = (
{
name = o;
}
);
layerId = "0E913661-75E6-4305-BF89-58B721FF741E";
paths = (
{
closed = 1;
nodes = (
"133 489 LINE",
"149 512 OFFCURVE",
"307 497 OFFCURVE",
"354 497 CURVE",
"363 526 OFFCURVE",
"380 555 OFFCURVE",
"407 584 CURVE",
"382 589 LINE",
"344 559 OFFCURVE",
"205 566 OFFCURVE",
"151 566 CURVE",
"105 495 LINE"
);
}
);
width = 445;
}
);
},
{
color = 4;
glyphname = p;
lastChange = "2019-04-21 16:26:36 +0000";
layers = (
{
anchors = (
{
name = bottom;
position = "{217, 0}";
},
{
name = top;
position = "{217, 390}";
}
);
layerId = "0E913661-75E6-4305-BF89-58B721FF741E";
paths = (
{
closed = 1;
nodes = (
"164 74 OFFCURVE",
"197 55 OFFCURVE",
"251 55 CURVE SMOOTH",
"321 55 OFFCURVE",
"364 95 OFFCURVE",
"364 180 CURVE SMOOTH",
"364 271 OFFCURVE",
"298 319 OFFCURVE",
"225 319 CURVE SMOOTH",
"176 319 OFFCURVE",
"142 289 OFFCURVE",
"142 289 CURVE",
"137 319 LINE",
"169 342 OFFCURVE",
"224 392 OFFCURVE",
"250 401 CURVE",
"361 399 OFFCURVE",
"414 326 OFFCURVE",
"413 204 CURVE SMOOTH",
"412 66 OFFCURVE",
"306 -9 OFFCURVE",
"239 -9 CURVE",
"220 -2 OFFCURVE",
"81 32 OFFCURVE",
"19 53 CURVE",
"19 62 LINE",
"112 118 LINE"
);
},
{
closed = 1;
nodes = (
"61 328 OFFCURVE",
"37 339 OFFCURVE",
"14 349 CURVE",
"13 368 LINE",
"49 382 OFFCURVE",
"102 399 OFFCURVE",
"131 415 CURVE",
"147 410 LINE",
"146 385 OFFCURVE",
"147 344 OFFCURVE",
"146 324 CURVE SMOOTH",
"140 197 OFFCURVE",
"146 -1 OFFCURVE",
"145 -102 CURVE SMOOTH",
"144 -173 OFFCURVE",
"143 -173 OFFCURVE",
"223 -177 CURVE",
"223 -205 LINE",
"136 -204 OFFCURVE",
"61 -203 OFFCURVE",
"20 -205 CURVE",
"20 -177 LINE",
"65 -174 OFFCURVE",
"61 -174 OFFCURVE",
"61 -112 CURVE SMOOTH",
"61 284 LINE SMOOTH"
);
}
);
width = 433;
}
);
unicode = 0070;
},
{
color = 4;
glyphname = q;
lastChange = "2019-04-24 17:09:03 +0000";
layers = (
{
anchors = (
{
name = bottom;
position = "{214, 0}";
},
{
name = top;
position = "{214, 390}";
}
);
layerId = "0E913661-75E6-4305-BF89-58B721FF741E";
paths = (
{
closed = 1;
nodes = (
"306 282 LINE",
"281 314 OFFCURVE",
"240 330 OFFCURVE",
"190 330 CURVE SMOOTH",
"127 330 OFFCURVE",
"70 289 OFFCURVE",
"72 202 CURVE SMOOTH",
"74 111 OFFCURVE",
"145 67 OFFCURVE",
"209 67 CURVE SMOOTH",
"247 67 OFFCURVE",
"265 78 OFFCURVE",
"293 101 CURVE",
"315 84 LINE",
"269 49 OFFCURVE",
"219 10 OFFCURVE",
"179 -10 CURVE",
"93 -10 OFFCURVE",
"19 52 OFFCURVE",
"20 173 CURVE SMOOTH",
"21 291 OFFCURVE",
"98 399 OFFCURVE",
"222 399 CURVE SMOOTH",
"262 399 OFFCURVE",
"306 391 OFFCURVE",
"351 368 CURVE"
);
},
{
closed = 1;
nodes = (
"369 -93 LINE SMOOTH",
"370 -155 OFFCURVE",
"365 -155 OFFCURVE",
"420 -162 CURVE",
"420 -187 LINE",
"369 -191 OFFCURVE",
"293 -199 OFFCURVE",
"226 -205 CURVE",
"226 -180 LINE",
"286 -163 OFFCURVE",
"286 -163 OFFCURVE",
"285 -92 CURVE SMOOTH",
"284 9 OFFCURVE",
"300 210 OFFCURVE",
"294 336 CURVE",
"301 356 OFFCURVE",
"334 381 OFFCURVE",
"355 406 CURVE",
"371 399 LINE",
"364 358 OFFCURVE",
"365 330 OFFCURVE",
"365 286 CURVE SMOOTH"
);
}
);
width = 430;
}
);
unicode = 0071;
},
{
color = 4;
glyphname = q_etfin;
lastChange = "2019-04-21 16:58:28 +0000";
layers = (
{
anchors = (
{
name = bottom_1;
position = "{100, 0}";
},
{
name = bottom_2;
position = "{300, 0}";
},
{
name = bottom_3;
position = "{500, 0}";
},
{
name = caret_1;
position = "{200, 0}";
},
{
name = caret_2;
position = "{400, 0}";
},
{
name = top_1;
position = "{100, 390}";
},
{
name = top_2;
position = "{300, 390}";
},
{
name = top_3;
position = "{500, 390}";
}
);
components = (
{
name = q;
}
);
layerId = "0E913661-75E6-4305-BF89-58B721FF741E";
paths = (
{
closed = 1;
nodes = (
"433 -37 OFFCURVE",
"483 8 OFFCURVE",
"483 61 CURVE SMOOTH",
"483 98 OFFCURVE",
"455 161 OFFCURVE",
"346 94 CURVE",
"331 114 LINE",
"409 161 OFFCURVE",
"480 199 OFFCURVE",
"480 253 CURVE SMOOTH",
"480 291 OFFCURVE",
"452 306 OFFCURVE",
"427 306 CURVE SMOOTH",
"396 306 OFFCURVE",
"377 296 OFFCURVE",
"346 259 CURVE",
"341 303 LINE",
"455 406 LINE",
"520 380 OFFCURVE",
"550 307 OFFCURVE",
"550 281 CURVE SMOOTH",
"550 257 OFFCURVE",
"513 219 OFFCURVE",
"455 161 CURVE",
"477 192 LINE",
"541 177 OFFCURVE",
"563 121 OFFCURVE",
"563 92 CURVE SMOOTH",
"563 2 OFFCURVE",
"472 -50 OFFCURVE",
"352 -125 CURVE",
"331 -101 LINE"
);
}
);
width = 601;
}
);
leftMetricsKey = q;
rightMetricsKey = z;
},
{
color = 4;
glyphname = q_strok;
lastChange = "2019-04-21 16:58:28 +0000";
layers = (
{
anchors = (
{
name = bottom_1;
position = "{216, 0}";
},
{
name = bottom_2;
position = "{649, 0}";
},
{
name = caret_1;
position = "{432.5, 0}";
},
{
name = top_1;
position = "{216, 390}";
},
{
name = top_2;
position = "{649, 390}";
}
);
components = (
{
name = q;
}
);
layerId = "0E913661-75E6-4305-BF89-58B721FF741E";
paths = (
{
closed = 1;
nodes = (
"454 400 LINE",
"533 375 OFFCURVE",
"570 335 OFFCURVE",
"570 252 CURVE SMOOTH",
"570 73 OFFCURVE",
"386 -10 OFFCURVE",
"153 -170 CURVE",
"153 -123 LINE",
"396 24 OFFCURVE",
"493 98 OFFCURVE",
"493 225 CURVE SMOOTH",
"493 296 OFFCURVE",
"425 351 OFFCURVE",
"346 267 CURVE",
"341 303 LINE"
);
}
);
width = 590;
}
);
leftMetricsKey = q;
rightMetricsKey = p;
},
{
color = 4;
glyphname = q_strok_ra;
lastChange = "2019-04-21 16:58:28 +0000";
layers = (
{
anchors = (
{
name = bottom_1;
position = "{100, 0}";
},
{
name = bottom_2;
position = "{300, 0}";
},
{
name = bottom_3;
position = "{500, 0}";
},
{
name = caret_1;
position = "{200, 0}";
},
{
name = caret_2;
position = "{400, 0}";
},
{
name = top_1;
position = "{100, 390}";
},
{
name = top_2;
position = "{300, 390}";
},
{
name = top_3;
position = "{500, 390}";
}
);
components = (
{
name = q_strok;
}
);
layerId = "0E913661-75E6-4305-BF89-58B721FF741E";
paths = (
{
closed = 1;
nodes = (
"139 498 LINE",
"178 533 OFFCURVE",
"224 495 OFFCURVE",
"260 460 CURVE",
"311 513 LINE SMOOTH",
"345 548 OFFCURVE",
"381 490 OFFCURVE",
"420 452 CURVE",
"511 557 LINE",
"494 572 LINE",
"437 521 OFFCURVE",
"422 537 OFFCURVE",
"363 590 CURVE",
"290 523 LINE",
"254 543 OFFCURVE",
"239 559 OFFCURVE",
"200 592 CURVE",
"120 516 LINE"
);
}
);
width = 590;
}
);
leftMetricsKey = q;
rightMetricsKey = p;
},
{
color = 4;
glyphname = q_tilde;
lastChange = "2019-03-28 15:38:46 +0000";
layers = (
{
components = (
{
name = q;
}
);
layerId = "0E913661-75E6-4305-BF89-58B721FF741E";
paths = (
{
closed = 1;
nodes = (
"433 585 LINE",
"375 509 OFFCURVE",
"361 567 OFFCURVE",
"325 602 CURVE",
"225 473 LINE",
"245 461 LINE",
"306 525 LINE",
"326 509 OFFCURVE",
"348 498 OFFCURVE",
"387 465 CURVE",
"454 573 LINE"
);
}
);
width = 434;
}
);
leftMetricsKey = q;
},
{
color = 4;
glyphname = r;
lastChange = "2019-03-11 20:59:03 +0000";
layers = (
{
anchors = (
{
name = bottom;
position = "{146, 0}";
},
{
name = top;
position = "{146, 390}";
}
);
layerId = "0E913661-75E6-4305-BF89-58B721FF741E";
paths = (
{
closed = 1;
nodes = (
"235 401 CURVE",
"301 378 LINE",
"292 355 OFFCURVE",
"277 311 OFFCURVE",
"266 291 CURVE",
"255 293 OFFCURVE",
"234 306 OFFCURVE",
"212 306 CURVE SMOOTH",
"191 306 OFFCURVE",
"147 256 OFFCURVE",
"131 240 CURVE",
"117 255 LINE",
"122 269 OFFCURVE",
"219 383 OFFCURVE"
);
},
{
closed = 1;
nodes = (
"58 338 OFFCURVE",
"34 335 OFFCURVE",
"11 349 CURVE",
"10 368 LINE",
"51 376 OFFCURVE",
"77 382 OFFCURVE",
"119 415 CURVE",
"135 407 LINE",
"137 354 OFFCURVE",
"138 307 OFFCURVE",
"142 264 CURVE",
"142 106 LINE SMOOTH",
"142 35 OFFCURVE",
"151 35 OFFCURVE",
"211 18 CURVE",
"211 -6 LINE",
"154 2 OFFCURVE",
"69 1 OFFCURVE",
"17 -6 CURVE",
"17 18 LINE",
"62 34 OFFCURVE",
"58 34 OFFCURVE",
"58 96 CURVE SMOOTH",
"58 294 LINE SMOOTH"
);
}
);
width = 291;
}
);
unicode = 0072;
},
{
color = 4;
glyphname = r_rot;
lastChange = "2019-04-21 16:57:16 +0000";
layers = (
{
layerId = "0E913661-75E6-4305-BF89-58B721FF741E";
paths = (
{
closed = 1;
nodes = (
"137 402 LINE",
"189 367 OFFCURVE",
"246 338 OFFCURVE",
"308 315 CURVE",
"310 299 LINE",
"95 114 LINE",
"106 140 LINE",
"198 96 LINE SMOOTH",
"221 85 OFFCURVE",
"232 83 OFFCURVE",
"277 81 CURVE",
"288 65 LINE",
"175 -10 LINE",
"126 28 OFFCURVE",
"69 56 OFFCURVE",
"20 76 CURVE",
"20 86 LINE",
"230 288 LINE",
"216 234 LINE",
"171 273 OFFCURVE",
"129 309 OFFCURVE",
"84 318 CURVE",
"65 318 OFFCURVE",
"43 313 OFFCURVE",
"24 302 CURVE",
"10 318 LINE"
);
}
);
width = 320;
}
);
},
{
color = 4;
glyphname = r_rot_c_ra;
lastChange = "2019-04-21 16:31:46 +0000";
layers = (
{
layerId = "0E913661-75E6-4305-BF89-58B721FF741E";
paths = (
{
closed = 1;
nodes = (
"368 340 LINE",
"348 311 OFFCURVE",
"332 266 OFFCURVE",
"332 191 CURVE SMOOTH",
"332 76 OFFCURVE",
"384 -8 OFFCURVE",
"473 -8 CURVE SMOOTH",
"520 -8 OFFCURVE",
"557 25 OFFCURVE",
"591 42 CURVE",
"586 65 LINE",
"484 36 OFFCURVE",
"411 83 OFFCURVE",
"411 205 CURVE SMOOTH",
"411 248 OFFCURVE",
"416 293 OFFCURVE",
"439 345 CURVE",
"410 322 LINE",
"461 327 OFFCURVE",
"517 320 OFFCURVE",
"557 299 CURVE",
"563 302 LINE",
"574 390 LINE",
"549 397 OFFCURVE",
"503 403 OFFCURVE",
"430 393 CURVE"
);
},
{
closed = 1;
nodes = (
"27 285 LINE",
"52 303 OFFCURVE",
"79 328 OFFCURVE",
"118 328 CURVE SMOOTH",
"153 328 OFFCURVE",
"195 304 OFFCURVE",
"195 248 CURVE SMOOTH",
"195 174 OFFCURVE",
"105 88 OFFCURVE",
"38 18 CURVE",
"63 0 LINE",
"75 8 OFFCURVE",
"103 25 OFFCURVE",
"115 25 CURVE SMOOTH",
"173 25 OFFCURVE",
"213 -3 OFFCURVE",
"290 -14 CURVE",
"370 65 LINE",
"359 91 LINE",
"307 44 LINE",
"150 91 LINE",
"194 156 OFFCURVE",
"251 194 OFFCURVE",
"251 285 CURVE SMOOTH",
"251 351 OFFCURVE",
"204 402 OFFCURVE",
"138 402 CURVE SMOOTH",
"108 402 OFFCURVE",
"79 393 OFFCURVE",
"57 386 CURVE",
"10 297 LINE"
);
},
{
closed = 1;
nodes = (
"111 469 LINE",
"119 471 LINE",
"137 502 OFFCURVE",
"156 530 OFFCURVE",
"167 529 CURVE SMOOTH",
"193 526 OFFCURVE",
"225 494 OFFCURVE",
"250 470 CURVE",
"306 523 LINE",
"327 534 OFFCURVE",
"381 500 OFFCURVE",
"420 462 CURVE",
"450 503 OFFCURVE",
"486 533 OFFCURVE",
"536 584 CURVE",
"518 642 LINE",
"512 642 LINE",
"494 601 OFFCURVE",
"457 538 OFFCURVE",
"449 537 CURVE",
"413 545 OFFCURVE",
"382 581 OFFCURVE",
"350 600 CURVE",
"284 541 LINE",
"247 550 OFFCURVE",
"230 578 OFFCURVE",
"190 601 CURVE",
"100 507 LINE"
);
}
);
width = 591;
}
);
leftMetricsKey = r;
rightMetricsKey = c;
},
{
color = 4;
glyphname = s;
lastChange = "2019-04-24 17:09:03 +0000";
layers = (
{
anchors = (
{
name = bottom;
position = "{178, 0}";
},
{
name = top;
position = "{178, 390}";
}
);
layerId = "0E913661-75E6-4305-BF89-58B721FF741E";
paths = (
{
closed = 1;
nodes = (
"297 405 OFFCURVE",
"281 388 OFFCURVE",
"252 388 CURVE SMOOTH",
"235 388 OFFCURVE",
"206 401 OFFCURVE",
"172 401 CURVE SMOOTH",
"78 401 OFFCURVE",
"31 340 OFFCURVE",
"31 275 CURVE SMOOTH",
"31 209 OFFCURVE",
"63 167 OFFCURVE",
"152 160 CURVE SMOOTH",
"251 152 OFFCURVE",
"277 124 OFFCURVE",
"277 88 CURVE SMOOTH",
"277 50 OFFCURVE",
"244 26 OFFCURVE",
"205 26 CURVE SMOOTH",
"135 26 OFFCURVE",
"88 64 OFFCURVE",
"53 140 CURVE",
"33 137 LINE",
"39 105 OFFCURVE",
"34 33 OFFCURVE",
"20 -7 CURVE",
"40 -13 LINE",
"47 -4 OFFCURVE",
"58 14 OFFCURVE",
"76 14 CURVE SMOOTH",
"106 14 OFFCURVE",
"141 -8 OFFCURVE",
"215 -8 CURVE SMOOTH",
"278 -8 OFFCURVE",
"336 38 OFFCURVE",
"336 111 CURVE SMOOTH",
"336 185 OFFCURVE",
"300 223 OFFCURVE",
"197 236 CURVE SMOOTH",
"111 247 OFFCURVE",
"80 255 OFFCURVE",
"80 298 CURVE SMOOTH",
"80 334 OFFCURVE",
"111 360 OFFCURVE",
"160 360 CURVE SMOOTH",
"217 360 OFFCURVE",
"255 334 OFFCURVE",
"301 245 CURVE",
"319 252 LINE",
"304 303 OFFCURVE",
"302 354 OFFCURVE",
"334 409 CURVE",
"317 420 LINE"
);
}
);
width = 356;
}
);
unicode = 0073;
},
{
color = 4;
glyphname = longs;
lastChange = "2019-04-21 16:35:49 +0000";
layers = (
{
anchors = (
{
name = bottom;
position = "{135, 0}";
}
);
layerId = "0E913661-75E6-4305-BF89-58B721FF741E";
paths = (
{
closed = 1;
nodes = (
"153 109 LINE SMOOTH",
"153 38 OFFCURVE",
"152 38 OFFCURVE",
"202 21 CURVE",
"202 -6 LINE",
"145 0 OFFCURVE",
"73 1 OFFCURVE",
"25 -6 CURVE",
"25 21 LINE",
"67 37 OFFCURVE",
"68 37 OFFCURVE",
"68 108 CURVE SMOOTH",
"67 598 LINE",
"108 634 OFFCURVE",
"147 672 OFFCURVE",
"190 711 CURVE",
"228 695 OFFCURVE",
"282 683 OFFCURVE",
"307 670 CURVE",
"307 660 LINE",
"247 598 LINE",
"207 619 OFFCURVE",
"175 627 OFFCURVE",
"152 627 CURVE"
);
},
{
closed = 1;
nodes = (
"36 384 LINE",
"72 410 LINE",
"76 346 LINE",
"36 371 LINE"
);
}
);
width = 270;
}
);
unicode = 017F;
},
{
color = 4;
glyphname = longs_i;
lastChange = "2019-04-21 16:58:28 +0000";
layers = (
{
anchors = (
{
name = bottom_1;
position = "{122, 0}";
},
{
name = bottom_2;
position = "{347, 0}";
},
{
name = caret_1;
position = "{234, 0}";
},
{
name = top_1;
position = "{122, 390}";
},
{
name = top_2;
position = "{347, 390}";
}
);
layerId = "0E913661-75E6-4305-BF89-58B721FF741E";
paths = (
{
closed = 1;
nodes = (
"316 338 OFFCURVE",
"292 335 OFFCURVE",
"269 349 CURVE",
"268 368 LINE",
"309 376 OFFCURVE",
"349 386 OFFCURVE",
"391 419 CURVE",
"411 408 LINE",
"394 297 OFFCURVE",
"402 236 OFFCURVE",
"400 106 CURVE SMOOTH",
"399 35 OFFCURVE",
"399 35 OFFCURVE",
"441 18 CURVE",
"441 -6 LINE",
"392 0 OFFCURVE",
"316 1 OFFCURVE",
"275 -6 CURVE",
"275 18 LINE",
"320 34 OFFCURVE",
"316 34 OFFCURVE",
"316 96 CURVE SMOOTH",
"316 294 LINE SMOOTH"
);
},
{
closed = 1;
nodes = (
"162 109 LINE SMOOTH",
"162 38 OFFCURVE",
"161 38 OFFCURVE",
"211 21 CURVE",
"211 -6 LINE",
"154 0 OFFCURVE",
"82 1 OFFCURVE",
"34 -6 CURVE",
"34 21 LINE",
"76 37 OFFCURVE",
"77 37 OFFCURVE",
"77 108 CURVE SMOOTH",
"76 598 LINE",
"117 634 OFFCURVE",
"156 672 OFFCURVE",
"199 711 CURVE",
"247 711 OFFCURVE",
"301 700 OFFCURVE",
"326 677 CURVE",
"304 598 LINE",
"294 596 LINE",
"254 629 OFFCURVE",
"198 632 OFFCURVE",
"161 617 CURVE"
);
},
{
closed = 1;
nodes = (
"85 391 LINE",
"151 391 LINE",
"151 347 LINE",
"25 347 LINE",
"25 369 LINE"
);
}
);
width = 451;
}
);
leftMetricsKey = longs;
rightMetricsKey = i;
},
{
color = 4;
glyphname = t;
lastChange = "2019-04-21 16:43:16 +0000";
layers = (
{
anchors = (
{
name = bottom;
position = "{117, 0}";
},
{
name = center;
position = "{117, 195}";
},
{
name = top;
position = "{117, 390}";
},
{
name = topright;
position = "{226, 390}";
}
);
layerId = "0E913661-75E6-4305-BF89-58B721FF741E";
paths = (
{
closed = 1;
nodes = (
"218 56 LINE",
"136 56 OFFCURVE",
"135 97 OFFCURVE",
"134 225 CURVE SMOOTH",
"133 352 OFFCURVE",
"137 444 OFFCURVE",
"155 535 CURVE",
"126 540 LINE",
"111 481 OFFCURVE",
"79 467 OFFCURVE",
"43 465 CURVE",
"40 444 LINE",
"52 435 OFFCURVE",
"56 400 OFFCURVE",
"55 368 CURVE SMOOTH",
"49 59 LINE",
"60 27 OFFCURVE",
"89 1 OFFCURVE",
"139 -9 CURVE",
"165 -1 OFFCURVE",
"202 20 OFFCURVE",
"222 32 CURVE"
);
},
{
closed = 1;
nodes = (
"226 390 LINE",
"10 390 LINE",
"11 370 LINE",
"33 359 OFFCURVE",
"47 347 OFFCURVE",
"53 336 CURVE",
"225 336 LINE"
);
}
);
width = 246;
}
);
unicode = 0074;
},
{
color = 4;
glyphname = u;
lastChange = "2019-04-21 16:41:28 +0000";
layers = (
{
anchors = (
{
name = ogonek;
position = "{440, 10}";
},
{
name = top;
position = "{229, 390}";
},
{
name = topright;
position = "{473, 390}";
}
);
layerId = "0E913661-75E6-4305-BF89-58B721FF741E";
paths = (
{
closed = 1;
nodes = (
"252 40 OFFCURVE",
"223 24 OFFCURVE",
"175 -8 CURVE",
"122 -8 OFFCURVE",
"53 39 OFFCURVE",
"42 70 CURVE",
"42 118 OFFCURVE",
"44 233 OFFCURVE",
"41 305 CURVE SMOOTH",
"39 354 OFFCURVE",
"37 357 OFFCURVE",
"10 372 CURVE",
"10 398 LINE",
"61 391 OFFCURVE",
"112 394 OFFCURVE",
"145 398 CURVE",
"145 372 LINE",
"127 354 OFFCURVE",
"126 355 OFFCURVE",
"126 305 CURVE SMOOTH",
"125 153 LINE SMOOTH",
"125 86 OFFCURVE",
"161 66 OFFCURVE",
"209 66 CURVE SMOOTH",
"239 66 OFFCURVE",
"284 83 OFFCURVE",
"306 102 CURVE",
"303 59 LINE"
);
},
{
closed = 1;
nodes = (
"373 66 OFFCURVE",
"396 60 OFFCURVE",
"419 46 CURVE",
"420 24 LINE",
"380 14 OFFCURVE",
"347 4 OFFCURVE",
"308 -11 CURVE",
"295 -1 LINE",
"292 26 OFFCURVE",
"288 50 OFFCURVE",
"287 74 CURVE",
"290 120 OFFCURVE",
"288 178 OFFCURVE",
"288 282 CURVE SMOOTH",
"288 353 OFFCURVE",
"289 353 OFFCURVE",
"239 370 CURVE",
"239 398 LINE",
"296 392 OFFCURVE",
"335 393 OFFCURVE",
"380 397 CURVE",
"373 305 OFFCURVE",
"371 212 OFFCURVE",
"372 120 CURVE SMOOTH"
);
}
);
width = 430;
}
);
unicode = 0075;
},
{
color = 4;
glyphname = u_macr;
lastChange = "2019-04-21 16:41:17 +0000";
layers = (
{
anchors = (
{
name = _top;
position = "{202, 390}";
},
{
name = bottom;
position = "{215, 0}";
},
{
name = ogonek;
position = "{387, 10}";
},
{
name = top;
position = "{215, 390}";
},
{
name = topright;
position = "{410, 390}";
}
);
components = (
{
name = u;
}
);
layerId = "0E913661-75E6-4305-BF89-58B721FF741E";
paths = (
{
closed = 1;
nodes = (
"103 485 LINE",
"119 508 OFFCURVE",
"269 497 OFFCURVE",
"316 497 CURVE",
"376 572 LINE",
"351 577 LINE",
"313 555 OFFCURVE",
"174 559 OFFCURVE",
"120 559 CURVE",
"75 491 LINE"
);
}
);
width = 430;
}
);
unicode = 016B;
},
{
color = 4;
glyphname = v;
lastChange = "2019-01-16 11:23:49 +0000";
layers = (
{
anchors = (
{
name = bottom;
position = "{219, 0}";
},
{
name = top;
position = "{219, 390}";
}
);
layerId = "0E913661-75E6-4305-BF89-58B721FF741E";
paths = (
{
closed = 1;
nodes = (
"176 54 OFFCURVE",
"34 350 OFFCURVE",
"5 374 CURVE",
"5 399 LINE",
"72 396 OFFCURVE",
"128 397 OFFCURVE",
"185 399 CURVE",
"185 375 LINE",
"141 358 OFFCURVE",
"134 344 OFFCURVE",
"152 302 CURVE SMOOTH",
"244 93 LINE",
"217 68 LINE",
"260 136 OFFCURVE",
"292 207 OFFCURVE",
"323 279 CURVE SMOOTH",
"345 331 OFFCURVE",
"328 351 OFFCURVE",
"281 376 CURVE",
"281 400 LINE",
"320 397 OFFCURVE",
"374 397 OFFCURVE",
"433 400 CURVE",
"433 375 LINE",
"413 364 OFFCURVE",
"235 30 OFFCURVE",
"227 -10 CURVE",
"203 -10 LINE"
);
}
);
width = 438;
}
);
unicode = 0076;
},
{
color = 6;
glyphname = w;
lastChange = "2019-03-12 16:36:17 +0000";
layers = (
{
anchors = (
{
name = bottom;
position = "{316, 0}";
},
{
name = top;
position = "{316, 390}";
}
);
layerId = "0E913661-75E6-4305-BF89-58B721FF741E";
paths = (
{
closed = 1;
nodes = (
"167 54 OFFCURVE",
"33 350 OFFCURVE",
"5 374 CURVE",
"5 399 LINE",
"69 396 OFFCURVE",
"117 397 OFFCURVE",
"172 399 CURVE",
"172 375 LINE",
"130 358 OFFCURVE",
"122 344 OFFCURVE",
"140 302 CURVE SMOOTH",
"234 83 LINE",
"206 68 LINE",
"247 136 OFFCURVE",
"274 207 OFFCURVE",
"304 279 CURVE SMOOTH",
"325 331 OFFCURVE",
"308 351 OFFCURVE",
"263 376 CURVE",
"263 400 LINE",
"300 397 OFFCURVE",
"356 397 OFFCURVE",
"412 400 CURVE",
"412 375 LINE",
"393 364 OFFCURVE",
"224 30 OFFCURVE",
"216 -10 CURVE",
"193 -10 LINE"
);
},
{
closed = 1;
nodes = (
"382 54 OFFCURVE",
"322 192 OFFCURVE",
"295 216 CURVE",
"348 295 LINE",
"447 83 LINE",
"421 68 LINE",
"462 136 OFFCURVE",
"488 208 OFFCURVE",
"518 279 CURVE SMOOTH",
"540 331 OFFCURVE",
"521 351 OFFCURVE",
"477 376 CURVE",
"477 400 LINE",
"514 397 OFFCURVE",
"570 397 OFFCURVE",
"626 400 CURVE",
"626 375 LINE",
"607 364 OFFCURVE",
"438 30 OFFCURVE",
"430 -10 CURVE",
"408 -10 LINE"
);
}
);
width = 631;
}
);
unicode = 0077;
},
{
color = 4;
glyphname = x;
lastChange = "2019-01-16 11:19:50 +0000";
layers = (
{
anchors = (
{
name = bottom;
position = "{207, 0}";
},
{
name = top;
position = "{207, 390}";
}
);
layerId = "0E913661-75E6-4305-BF89-58B721FF741E";
paths = (
{
closed = 1;
nodes = (
"194 222 LINE",
"253 274 OFFCURVE",
"349 319 OFFCURVE",
"261 376 CURVE",
"261 400 LINE",
"305 398 OFFCURVE",
"349 398 OFFCURVE",
"395 400 CURVE",
"395 376 LINE",
"356 316 OFFCURVE",
"279 247 OFFCURVE",
"216 195 CURVE"
);
},
{
closed = 1;
nodes = (
"185 186 LINE",
"103 136 OFFCURVE",
"73 50 OFFCURVE",
"155 23 CURVE",
"155 -2 LINE",
"105 1 OFFCURVE",
"54 0 OFFCURVE",
"14 -2 CURVE",
"18 86 OFFCURVE",
"90 163 OFFCURVE",
"163 212 CURVE"
);
},
{
closed = 1;
nodes = (
"249 215 CURVE SMOOTH",
"310 125 OFFCURVE",
"345 80 OFFCURVE",
"400 19 CURVE",
"400 -5 LINE",
"340 -2 OFFCURVE",
"283 -1 OFFCURVE",
"229 -5 CURVE",
"229 19 LINE",
"274 52 OFFCURVE",
"257 65 OFFCURVE",
"167 197 CURVE SMOOTH",
"123 261 OFFCURVE",
"64 359 OFFCURVE",
"21 372 CURVE",
"20 400 LINE",
"81 396 OFFCURVE",
"130 397 OFFCURVE",
"187 400 CURVE",
"187 376 LINE",
"157 359 OFFCURVE",
"172 328 OFFCURVE"
);
}
);
width = 413;
}
);
unicode = 0078;
},
{
color = 4;
glyphname = y;
lastChange = "2019-01-11 09:13:22 +0000";
layers = (
{
anchors = (
{
name = bottom;
position = "{214, 0}";
},
{
name = top;
position = "{214, 390}";
}
);
layerId = "0E913661-75E6-4305-BF89-58B721FF741E";
paths = (
{
closed = 1;
nodes = (
"172 -35 OFFCURVE",
"287 184 OFFCURVE",
"318 279 CURVE SMOOTH",
"335 331 OFFCURVE",
"318 351 OFFCURVE",
"271 376 CURVE",
"271 400 LINE",
"310 397 OFFCURVE",
"364 397 OFFCURVE",
"423 400 CURVE",
"423 375 LINE",
"381 308 OFFCURVE",
"340 219 OFFCURVE",
"265 77 CURVE SMOOTH",
"215 -17 OFFCURVE",
"148 -117 OFFCURVE",
"144 -199 CURVE",
"114 -199 LINE",
"114 -80 LINE"
);
},
{
closed = 1;
nodes = (
"198 4 LINE",
"161 89 OFFCURVE",
"52 351 OFFCURVE",
"25 374 CURVE",
"25 399 LINE",
"92 396 OFFCURVE",
"138 397 OFFCURVE",
"195 399 CURVE",
"195 375 LINE",
"151 358 OFFCURVE",
"146 346 OFFCURVE",
"162 302 CURVE SMOOTH",
"240 83 LINE"
);
}
);
width = 428;
}
);
unicode = 0079;
},
{
color = 4;
glyphname = z;
lastChange = "2019-04-21 16:51:55 +0000";
layers = (
{
anchors = (
{
name = bottom;
position = "{195, 0}";
},
{
name = top;
position = "{195, 390}";
}
);
layerId = "0E913661-75E6-4305-BF89-58B721FF741E";
paths = (
{
closed = 1;
nodes = (
"237 375 LINE",
"242 356 LINE",
"124 350 LINE SMOOTH",
"83 348 OFFCURVE",
"68 325 OFFCURVE",
"53 279 CURVE",
"26 279 LINE",
"26 390 LINE",
"138 387 OFFCURVE",
"252 391 OFFCURVE",
"326 390 CURVE",
"331 372 LINE",
"272 277 OFFCURVE",
"207 143 OFFCURVE",
"148 28 CURVE",
"140 39 LINE",
"223 43 LINE SMOOTH",
"260 45 OFFCURVE",
"294 41 OFFCURVE",
"327 117 CURVE",
"352 117 LINE",
"350 0 LINE",
"240 0 OFFCURVE",
"163 4 OFFCURVE",
"53 -3 CURVE",
"44 17 LINE"
);
}
);
width = 390;
}
);
unicode = 007A;
},
{
color = 4;
glyphname = z.ss01;
lastChange = "2019-04-23 09:37:46 +0000";
layers = (
{
layerId = "0E913661-75E6-4305-BF89-58B721FF741E";
paths = (
{
closed = 1;
nodes = (
"50 -126 OFFCURVE",
"30 -147 OFFCURVE",
"30 -169 CURVE SMOOTH",
"30 -195 OFFCURVE",
"54 -208 OFFCURVE",
"76 -208 CURVE",
"80 -200 LINE",
"71 -195 OFFCURVE",
"63 -183 OFFCURVE",
"63 -169 CURVE SMOOTH",
"63 -154 OFFCURVE",
"71 -144 OFFCURVE",
"101 -129 CURVE SMOOTH",
"202 -79 OFFCURVE",
"311 -27 OFFCURVE",
"311 58 CURVE SMOOTH",
"311 118 OFFCURVE",
"249 177 OFFCURVE",
"145 187 CURVE",
"127 128 LINE",
"204 229 OFFCURVE",
"253 249 OFFCURVE",
"317 322 CURVE",
"307 344 LINE",
"242 348 OFFCURVE",
"177 387 OFFCURVE",
"134 403 CURVE",
"20 320 LINE",
"34 303 LINE",
"86 330 OFFCURVE",
"140 300 OFFCURVE",
"212 280 CURVE",
"169 212 OFFCURVE",
"93 168 OFFCURVE",
"26 116 CURVE",
"41 90 LINE",
"145 150 OFFCURVE",
"232 89 OFFCURVE",
"232 31 CURVE SMOOTH",
"232 -17 OFFCURVE",
"194 -58 OFFCURVE",
"71 -116 CURVE SMOOTH"
);
}
);
width = 337;
}
);
},
{
color = 10;
glyphname = etfin;
lastChange = "2019-05-23 16:32:07 +0000";
layers = (
{
anchors = (
{
name = bottom;
position = "{272, -5}";
},
{
name = top;
position = "{272, 385}";
}
);
layerId = "0E913661-75E6-4305-BF89-58B721FF741E";
paths = (
{
closed = 1;
nodes = (
"50 -126 OFFCURVE",
"30 -147 OFFCURVE",
"30 -169 CURVE SMOOTH",
"30 -195 OFFCURVE",
"54 -208 OFFCURVE",
"76 -208 CURVE",
"80 -200 LINE",
"71 -195 OFFCURVE",
"63 -183 OFFCURVE",
"63 -169 CURVE SMOOTH",
"63 -154 OFFCURVE",
"71 -144 OFFCURVE",
"101 -129 CURVE SMOOTH",
"202 -79 OFFCURVE",
"311 -27 OFFCURVE",
"311 58 CURVE SMOOTH",
"311 118 OFFCURVE",
"249 177 OFFCURVE",
"145 187 CURVE",
"127 128 LINE",
"204 229 OFFCURVE",
"253 249 OFFCURVE",
"317 322 CURVE",
"307 344 LINE",
"242 348 OFFCURVE",
"177 387 OFFCURVE",
"134 403 CURVE",
"20 320 LINE",
"34 303 LINE",
"86 330 OFFCURVE",
"140 300 OFFCURVE",
"212 280 CURVE",
"169 212 OFFCURVE",
"93 168 OFFCURVE",
"26 116 CURVE",
"41 90 LINE",
"145 150 OFFCURVE",
"232 89 OFFCURVE",
"232 31 CURVE SMOOTH",
"232 -17 OFFCURVE",
"194 -58 OFFCURVE",
"71 -116 CURVE SMOOTH"
);
}
);
width = 337;
}
);
},
{
color = 10;
glyphname = con;
lastChange = "2019-04-24 17:25:43 +0000";
layers = (
{
layerId = "0E913661-75E6-4305-BF89-58B721FF741E";
paths = (
{
closed = 1;
nodes = (
"74 257 LINE",
"5 321 LINE",
"47 362 OFFCURVE",
"109 403 OFFCURVE",
"161 403 CURVE SMOOTH",
"243 403 OFFCURVE",
"351 321 OFFCURVE",
"351 186 CURVE SMOOTH",
"351 71 OFFCURVE",
"274 -8 OFFCURVE",
"180 -8 CURVE SMOOTH",
"116 -8 OFFCURVE",
"67 16 OFFCURVE",
"24 69 CURVE",
"86 102 LINE",
"117 65 OFFCURVE",
"132 39 OFFCURVE",
"183 39 CURVE SMOOTH",
"225 39 OFFCURVE",
"267 102 OFFCURVE",
"267 194 CURVE SMOOTH",
"267 256 OFFCURVE",
"232 356 OFFCURVE",
"159 356 CURVE SMOOTH",
"118 356 OFFCURVE",
"98 293 OFFCURVE",
"88 257 CURVE"
);
}
);
width = 371;
}
);
unicode = A76F;
},
{
color = 10;
glyphname = section;
lastChange = "2019-04-21 16:54:04 +0000";
layers = (
{
layerId = "0E913661-75E6-4305-BF89-58B721FF741E";
paths = (
{
closed = 1;
nodes = (
"40 186 OFFCURVE",
"202 83 OFFCURVE",
"202 -38 CURVE SMOOTH",
"202 -86 OFFCURVE",
"167 -128 OFFCURVE",
"98 -171 CURVE",
"114 -196 LINE",
"334 -77 OFFCURVE",
"425 32 OFFCURVE",
"425 92 CURVE SMOOTH",
"425 197 OFFCURVE",
"197 415 OFFCURVE",
"225 486 CURVE",
"322 451 LINE",
"344 484 OFFCURVE",
"367 518 OFFCURVE",
"384 539 CURVE",
"370 551 LINE",
"323 518 OFFCURVE",
"301 531 OFFCURVE",
"233 552 CURVE",
"158 517 OFFCURVE",
"40 442 OFFCURVE",
"40 308 CURVE SMOOTH"
);
},
{
closed = 1;
nodes = (
"114 420 OFFCURVE",
"125 434 OFFCURVE",
"157 479 CURVE",
"139 472 LINE",
"131 349 OFFCURVE",
"334 211 OFFCURVE",
"334 84 CURVE SMOOTH",
"334 17 OFFCURVE",
"308 -38 OFFCURVE",
"256 -78 CURVE",
"263 -94 LINE",
"280 -67 OFFCURVE",
"288 -52 OFFCURVE",
"288 -19 CURVE SMOOTH",
"288 106 OFFCURVE",
"114 245 OFFCURVE",
"114 377 CURVE SMOOTH"
);
}
);
width = 465;
}
);
unicode = 00A7;
},
{
color = 10;
glyphname = parenleft;
lastChange = "2019-04-21 16:54:17 +0000";
layers = (
{
layerId = "0E913661-75E6-4305-BF89-58B721FF741E";
paths = (
{
closed = 1;
nodes = (
"42 422 OFFCURVE",
"113 546 OFFCURVE",
"237 634 CURVE",
"255 618 LINE",
"154 525 OFFCURVE",
"86 420 OFFCURVE",
"86 289 CURVE SMOOTH",
"86 155 OFFCURVE",
"148 54 OFFCURVE",
"255 -46 CURVE",
"239 -63 LINE",
"112 27 OFFCURVE",
"42 144 OFFCURVE",
"42 283 CURVE SMOOTH"
);
}
);
width = 297;
}
);
unicode = 0028;
},
{
color = 10;
glyphname = period;
lastChange = "2019-01-16 10:20:30 +0000";
layers = (
{
layerId = "0E913661-75E6-4305-BF89-58B721FF741E";
paths = (
{
closed = 1;
nodes = (
"7 52 LINE",
"50 42 OFFCURVE",
"67 23 OFFCURVE",
"77 -19 CURVE",
"94 -19 LINE",
"103 23 OFFCURVE",
"121 42 OFFCURVE",
"163 52 CURVE",
"163 69 LINE",
"121 80 OFFCURVE",
"104 98 OFFCURVE",
"94 140 CURVE",
"77 140 LINE",
"67 98 OFFCURVE",
"49 77 OFFCURVE",
"7 67 CURVE"
);
}
);
width = 169;
}
);
unicode = 002E;
},
{
color = 10;
glyphname = semicolon;
lastChange = "2019-04-21 16:58:00 +0000";
layers = (
{
components = (
{
name = period;
}
);
layerId = "0E913661-75E6-4305-BF89-58B721FF741E";
paths = (
{
closed = 1;
nodes = (
"68 204 LINE",
"128 184 LINE",
"198 533 LINE",
"192 598 LINE",
"181 598 LINE",
"142 448 OFFCURVE",
"106 321 OFFCURVE",
"67 211 CURVE"
);
}
);
width = 182;
}
);
unicode = 003B;
},
{
color = 10;
glyphname = question;
lastChange = "2019-01-11 09:13:27 +0000";
layers = (
{
components = (
{
name = period;
transform = "{1, 0, 0, 1, 23, 0}";
}
);
layerId = "0E913661-75E6-4305-BF89-58B721FF741E";
paths = (
{
closed = 1;
nodes = (
"80 213 OFFCURVE",
"55 246 OFFCURVE",
"32 270 CURVE",
"52 303 OFFCURVE",
"92 351 OFFCURVE",
"111 364 CURVE",
"157 351 OFFCURVE",
"201 331 OFFCURVE",
"231 331 CURVE SMOOTH",
"257 331 OFFCURVE",
"272 352 OFFCURVE",
"280 375 CURVE",
"231 443 OFFCURVE",
"121 542 OFFCURVE",
"102 575 CURVE",
"121 591 OFFCURVE",
"144 602 OFFCURVE",
"169 612 CURVE",
"183 591 LINE",
"166 588 OFFCURVE",
"153 582 OFFCURVE",
"144 576 CURVE",
"158 551 OFFCURVE",
"266 459 OFFCURVE",
"331 378 CURVE",
"331 344 OFFCURVE",
"280 264 OFFCURVE",
"229 243 CURVE",
"163 243 OFFCURVE",
"106 270 OFFCURVE",
"78 277 CURVE",
"90 243 OFFCURVE",
"113 214 OFFCURVE",
"146 183 CURVE",
"124 160 LINE"
);
}
);
width = 366;
}
);
unicode = 003F;
},
{
color = 10;
glyphname = slash;
lastChange = "2019-04-21 16:55:59 +0000";
layers = (
{
layerId = "0E913661-75E6-4305-BF89-58B721FF741E";
paths = (
{
closed = 1;
nodes = (
"168 472 LINE",
"113 304 OFFCURVE",
"58 154 OFFCURVE",
"6 12 CURVE",
"11 0 LINE",
"79 10 LINE",
"108 167 OFFCURVE",
"149 314 OFFCURVE",
"195 471 CURVE"
);
}
);
width = 204;
}
);
unicode = 002F;
},
{
color = 10;
glyphname = hyphen;
lastChange = "2019-05-23 16:31:18 +0000";
layers = (
{
layerId = "0E913661-75E6-4305-BF89-58B721FF741E";
paths = (
{
closed = 1;
nodes = (
"20 125 LINE",
"25 119 LINE",
"271 170 LINE",
"290 217 LINE",
"286 222 LINE",
"36 156 LINE"
);
},
{
closed = 1;
nodes = (
"24 265 LINE",
"29 259 LINE",
"271 329 LINE",
"288 377 LINE",
"284 382 LINE",
"36 297 LINE"
);
}
);
width = 310;
}
);
unicode = 002D;
},
{
color = 10;
glyphname = macr;
lastChange = "2019-04-19 16:29:00 +0000";
layers = (
{
anchors = (
{
name = _top;
position = "{147, 390}";
},
{
name = top;
position = "{148, 690}";
}
);
layerId = "0E913661-75E6-4305-BF89-58B721FF741E";
paths = (
{
closed = 1;
nodes = (
"48 485 LINE",
"64 508 OFFCURVE",
"194 497 OFFCURVE",
"241 497 CURVE",
"293 594 LINE",
"268 599 LINE",
"230 569 OFFCURVE",
"119 572 OFFCURVE",
"65 572 CURVE",
"20 491 LINE"
);
}
);
width = 313;
}
);
},
{
color = 10;
glyphname = ra;
lastChange = "2019-04-19 16:29:00 +0000";
layers = (
{
layerId = "0E913661-75E6-4305-BF89-58B721FF741E";
paths = (
{
closed = 1;
nodes = (
"39 499 LINE",
"68 533 OFFCURVE",
"114 495 OFFCURVE",
"150 460 CURVE",
"206 513 LINE",
"227 524 OFFCURVE",
"271 490 OFFCURVE",
"310 452 CURVE",
"391 528 LINE",
"374 543 LINE",
"327 522 OFFCURVE",
"289 560 OFFCURVE",
"250 583 CURVE",
"204 541 LINE",
"167 530 OFFCURVE",
"130 568 OFFCURVE",
"90 591 CURVE",
"20 517 LINE"
);
}
